<svg version="1.1" xmlns="http://www.w3.org/2000/svg" viewBox="-15.267025569659056 -12.67675553959373 30.534051139318123 38.55432198594813" fill="none" stroke="black" stroke-width="0.6%" vector-effect="non-scaling-stroke">
    <path d="M 5.72775 2.74113 A 2.5 0.76968 113.94169 0 1 5.81707 3.58478" />
    <path d="M -0.87571 24.49147 L 2.45455 6.28494 L 3.32411 6.67103 L -0.00615 24.87757 L 0.04954 24.82649 L 1.45966 23.24352 L 5.13935 6.69995 L 11.10335 -1.51118" />
    <path d="M 10.45491 -0.61842 L 11.93851 7.96176 L 12.80808 8.34786 L 11.10335 -1.51118" />
    <path d="M 11.43333 -5.73088 L 5.51817 2.41301" />
    <path d="M 1.78382 -2.45833 L 0.35976 0.01784 L 0.55576 0.61098 L 2.45455 6.28494" />
    <path d="M 12.30289 -5.34478 L 11.43333 -5.73088" />
    <path d="M 12.30289 -5.34478 L 5.81707 3.58478" />
    <path d="M 5.72775 2.74113 L 2.65339 -2.07223" />
    <path d="M 1.22932 0.40393 L 2.65339 -2.07223" />
    <path d="M 1.22932 0.40393 L 1.42533 0.99707 L 3.32411 6.67103" />
    <path d="M 12.80808 8.34786 L 14.26702 6.01442 L 12.30289 -5.34478" />
    <path d="M 1.78382 -2.45833 L 2.65339 -2.07223" />
    <path d="M -0.87571 24.49147 L -0.00615 24.87757" />
    <path d="M 4.37258 0.4451 A 1 0.27774 201.6618 0 1 4.38232 0.53486 L 4.35788 0.5964" />
    <path d="M -5.87688 -2.05532 L -9.71403 -3.75905 L -9.88292 -4.11238 L -9.27263 -5.23306" />
    <path d="M -5.87061 -2.05154 L -5.87688 -2.05532" />
    <path d="M -5.87007 -2.0523 L -5.87061 -2.05154" />
    <path d="M -1.38501 -0.06089 L -5.87007 -2.0523" />
    <path d="M -1.37726 -0.05745 L -1.3844 -0.05962" />
    <path d="M 0.63039 0.83397 L -1.37726 -0.05745" />
    <path d="M 0.5215 0.50729 L -1.54616 -0.41077 L -1.5533 -0.41294 L -1.3844 -0.05962" />
    <path d="M -1.54616 -0.41077 L -1.37726 -0.05745" />
    <path d="M -5.49486 -3.22218 L -1.17553 -1.30436" />
    <path d="M -5.49859 -3.21692 L -5.49486 -3.22218" />
    <path d="M -7.62773 -4.50271 L -5.49859 -3.21692" />
    <path d="M -6.04577 -2.40864 L -9.88292 -4.11238" />
    <path d="M -6.03951 -2.40486 L -6.04577 -2.40864 L -5.87688 -2.05532" />
    <path d="M -6.03897 -2.40562 L -6.03951 -2.40486 L -5.87061 -2.05154" />
    <path d="M -1.55296 -0.41379 L -6.03897 -2.40562 L -5.87007 -2.0523" />
    <path d="M -1.5533 -0.41294 L -1.55296 -0.41379" />
    <path d="M -1.17134 -1.29558 L 0.77506 -0.70429" />
    <path d="M -2.18471 -3.41551 L -2.77584 -4.65214 A 1 0.27774 201.6618 0 1 -2.78558 -4.7419 A 1 0.27774 201.6618 0 1 -2.0251 -4.72609 L 0.73381 -3.88798 A 1 0.27774 201.6618 0 1 1.82234 -3.25528 L 2.31632 -2.22189" />
    <path d="M -2.18471 -3.41551 L 1.66221 -2.24688" />
    <path d="M -1.17134 -1.29558 L -1.37791 -1.72773" />
    <path d="M -6.89025 -4.17526 L -10.7274 -5.87899 L -10.8963 -6.23231 L -10.29848 -7.33009 L -10.73793 -8.01811" />
    <path d="M -6.88399 -4.17148 L -6.89025 -4.17526" />
    <path d="M -6.88345 -4.17224 L -6.88399 -4.17148" />
    <path d="M -2.39838 -2.18082 L -6.88345 -4.17224" />
    <path d="M -2.39063 -2.17738 L -2.39777 -2.17955" />
    <path d="M 0.80598 -0.75806 L -2.39063 -2.17738" />
    <path d="M 0.93349 -0.97977 L -2.55953 -2.53071 L -2.56667 -2.53288 L -2.39777 -2.17955" />
    <path d="M -2.55953 -2.53071 L -2.39063 -2.17738" />
    <path d="M -6.50823 -5.34212 L -2.18891 -3.42429" />
    <path d="M -6.51196 -5.33686 L -6.50823 -5.34212" />
    <path d="M -10.52005 -7.75734 L -6.51196 -5.33686" />
    <path d="M -10.54705 -7.71927 L -10.52005 -7.75734" />
    <path d="M -7.05914 -4.52858 L -10.8963 -6.23231" />
    <path d="M -7.05288 -4.5248 L -7.05914 -4.52858 L -6.89025 -4.17526" />
    <path d="M -7.05234 -4.52556 L -7.05288 -4.5248 L -6.88399 -4.17148" />
    <path d="M -2.56633 -2.53373 L -7.05234 -4.52556 L -6.88345 -4.17224" />
    <path d="M -2.56667 -2.53288 L -2.56633 -2.53373" />
    <path d="M 0.35976 0.01784 L 1.22932 0.40393" />
    <path d="M 0.55576 0.61098 L 1.42533 0.99707" />
    <path d="M 2.17694 -4.1481 L 4.37258 0.4451" />
    <path d="M -2.42036 -5.65345 A 1 0.27774 201.6618 0 1 -1.6705 -5.61891 L 1.08841 -4.78079 A 1 0.27774 201.6618 0 1 2.17694 -4.1481" />
    <path d="M -7.10309 -6.57349 L -6.51196 -5.33686" />
    <path d="M -5.70516 -3.64907 L -5.49859 -3.21692" />
    <path d="M -5.43421 -3.19525 L -5.63659 -3.61862" />
    <path d="M -6.44758 -5.31519 L -7.07082 -6.61898" />
    <path d="M -7.55159 -2.79891 A 2.5 0.76968 113.94169 0 1 -7.55384 -2.56727 L -8.23621 -1.62779 A 1 0.81355 190.5005 0 0 -7.74257 -0.79113 L -5.15331 0.58646 A 1 0.81355 190.5005 0 0 -4.25395 0.67845 L -4.2548 0.71846 L -4.25559 0.75796 L -4.25632 0.79697 L -4.25699 0.83549 L -4.25761 0.8735 L -4.25816 0.91101 L -4.25866 0.94801 L -4.25909 0.98451 L -4.25947 1.0205 L -4.25979 1.05597 L -4.26005 1.09093 L -4.26025 1.12538 L -4.26039 1.15931 L -4.26048 1.19272 A 1 0.78186 180 0 0 -3.75432 1.86717 L -3.75432 1.24371 L -1.14562 2.402 A 1 0.78186 180 0 0 0.21776 2.10822 L 0.79216 1.31739" />
    <path d="M -12.16199 -5.54194 L -10.73793 -8.01811" />
    <path d="M -12.16199 -5.54194 L -11.96598 -4.9488 L -10.0672 0.72516 L -13.39746 18.93169 L -13.34177 18.88061 L -11.93165 17.29765 L -8.25196 0.75407 L -7.62954 -0.10286" />
    <path d="M -1.05883 -11.11954 L -1.08842 -11.29066 L -1.95799 -11.67675 L -5.24856 -7.14636" />
    <path d="M -1.08842 -11.29066 L -1.24216 -11.07899" />
    <path d="M -8.23621 -1.62779 L -8.24416 -1.58101 L -8.25205 -1.53288 L -8.25987 -1.4834 L -8.26762 -1.4326 L -8.27531 -1.3805 L -8.28292 -1.3271 L -8.29046 -1.27242 L -8.29793 -1.21648 L -8.30531 -1.1593 L -8.31262 -1.1009 L -8.31984 -1.04129 L -8.32697 -0.9805 L -8.33402 -0.91853 L -8.34098 -0.85541 A 1 0.81355 190.5005 0 0 -7.84854 -0.21938 L -7.74257 -0.79113" />
    <path d="M -10.53049 -7.74262 L -11.13575 -9.00881 A 1 0.2027 215.34944 0 1 -11.14486 -9.1003 A 1 0.2027 215.34944 0 1 -10.49812 -8.87506 L -9.93157 -9.67377 L -7.51197 -8.21258 A 1 0.2027 215.34944 0 1 -6.65149 -7.53212 L -6.66084 -7.51525 L -6.6701 -7.49851 L -6.67928 -7.4819 L -6.68838 -7.46543 L -6.69739 -7.44909 L -6.70632 -7.43289 L -6.71516 -7.41681 L -6.72392 -7.40087 L -6.7326 -7.38507 L -6.74118 -7.3694 L -6.74969 -7.35386 L -6.75811 -7.33845 L -6.76644 -7.32319 L -6.77469 -7.30805 L -7.0958 -6.71839 A 1 0.24203 208.5715 0 1 -6.38648 -6.59346 L -5.92244 -7.44557 L -3.31374 -6.28728 A 1 0.24203 208.5715 0 1 -2.37942 -5.68577" />
    <path d="M -8.07852 -7.41387 A 1 0.2027 215.34944 0 1 -7.10309 -6.57349 L -7.07082 -6.61898" />
    <path d="M -10.49812 -8.87506 L -8.07852 -7.41387 L -7.51197 -8.21258" />
    <path d="M -2.57543 -5.27102 L -2.56562 -5.29569 L -2.55561 -5.32077 L -2.5454 -5.34626 L -2.535 -5.37216 L -2.5244 -5.39847 L -2.51362 -5.42518 L -2.50263 -5.4523 L -2.49146 -5.47983 L -2.48009 -5.50776 L -2.46852 -5.5361 L -2.45677 -5.56483 L -2.44482 -5.59397 L -2.43269 -5.62351 L -2.42036 -5.65345" />
    <path d="M -11.60749 -8.4042 L -10.73793 -8.01811" />
    <path d="M -0.13441 3.13024 A 1 0.73851 170.95707 0 0 0.35935 3.65294 L 0.25337 2.98708 L 1.49935 3.43062" />
    <path d="M 10.84957 -4.92717 A 1 0.73851 170.95707 0 0 10.84961 -5.10082" />
    <path d="M 0.35935 3.65294 L 1.73799 4.14371" />
    <path d="M -5.25929 1.15821 A 1 0.81355 190.5005 0 0 -4.25992 1.21384" />
    <path d="M -7.84854 -0.21938 L -5.25929 1.15821 L -5.15331 0.58646" />
    <path d="M -3.77778 -5.43517 A 1 0.24203 208.5715 0 1 -2.77881 -4.75895" />
    <path d="M -7.10206 -6.67083 L -7.0993 -6.6669 L -7.09661 -6.66301 L -7.09401 -6.65915 L -7.09149 -6.65533 L -7.08905 -6.65153 L -7.0867 -6.64778 L -7.08442 -6.64405 L -7.08223 -6.64036 L -7.08012 -6.63671 L -7.07809 -6.63309 L -7.07615 -6.62951 L -7.07429 -6.62596 L -7.07251 -6.62245 L -7.07082 -6.61898" />
    <path d="M -6.38648 -6.59346 L -3.77778 -5.43517 L -3.31374 -6.28728" />
    <path d="M -7.10206 -6.67083 A 1 0.24203 208.5715 0 1 -7.0958 -6.71839" />
    <path d="M -13.03156 -5.92804 L -12.16199 -5.54194" />
    <path d="M -11.60749 -8.4042 L -13.03156 -5.92804 L -12.83555 -5.3349 L -10.93677 0.33906 L -10.0672 0.72516" />
    <path d="M -12.83555 -5.3349 L -11.96598 -4.9488" />
    <path d="M -14.26702 18.54559 L -13.39746 18.93169" />
    <path d="M -14.26702 18.54559 L -10.93677 0.33906" />
    <path d="M -0.33531 -10.98932 A 1 0.81355 190.5005 0 0 -1.69221 -10.76863 L -4.54884 -6.83568" />
    <path d="M -7.49812 -2.77517 L -7.5493 -2.7047" />
    <path d="M 2.25394 -9.61172 L -0.33531 -10.98932" />
    <path d="M 2.74468 -8.98614 A 1 0.81355 190.5005 0 0 2.25394 -9.61172" />
    <path d="M -4.26042 0.57385 L -4.26043 0.5746 L -4.26044 0.57535 L -4.26045 0.5761 L -4.26046 0.57685 L -4.26047 0.57759 L -4.26047 0.57834 L -4.26048 0.57909 L -4.26049 0.57984 L -4.26049 0.58059 L -4.2605 0.58134 L -4.2605 0.58209 L -4.2605 0.58284 L -4.2605 0.58359 L -4.2605 0.58434 L -4.26047 0.59105 L -4.26037 0.59776 L -4.2602 0.60448 L -4.25997 0.6112 L -4.25967 0.61792 L -4.2593 0.62464 L -4.25886 0.63137 L -4.25836 0.63809 L -4.25779 0.64482 L -4.25716 0.65155 L -4.25646 0.65828 L -4.25569 0.665 L -4.25485 0.67173 L -4.25395 0.67845" />
    <path d="M -10.57831 -9.89901 A 1 0.2027 215.34944 0 1 -9.93157 -9.67377" />
    <path d="M -0.24102 2.46023 A 1 0.73851 170.95707 0 0 -0.24038 2.46438 L -0.13441 3.13024" />
    <path d="M -0.24038 2.46438 A 1 0.73851 170.95707 0 0 0.25337 2.98708" />
    <path d="M 7.66063 -7.2111 A 1 0.73851 170.95707 0 0 6.76432 -7.18163" />
    <path d="M 10.24988 -6.28938 L 7.66063 -7.2111" />
    <path d="M 10.61915 -5.30227 A 1 0.73851 170.95707 0 0 10.74364 -5.76668 L 10.84961 -5.10082" />
    <path d="M 10.74364 -5.76668 A 1 0.73851 170.95707 0 0 10.24988 -6.28938" />
    <path d="M 5.28288 2.04462 L 10.61915 -5.30227" />
    <path d="M -1.14562 3.02545 A 1 0.78186 180 0 0 -0.15154 3.02257" />
    <path d="M -3.75432 1.86717 L -1.14562 3.02545 L -1.14562 2.402" />
    <path d="M -6.63177 -7.5705 A 1 0.24203 208.5715 0 1 -5.92244 -7.44557" />
    <path d="M 3.65294 -8.95447 A 1 0.78186 180 0 0 2.28955 -8.66069 L -0.23625 -5.1832" />
    <path d="M -3.32961 -0.92431 L -4.13007 0.17774 A 1 0.78186 180 0 0 -4.2605 0.56383 L -4.2605 0.58434" />
    <path d="M -4.2605 0.56383 A 1 0.78186 180 0 0 -3.75432 1.24371" />
    <path d="M -0.24102 2.46023 L -0.20036 2.44307 L -0.16061 2.42461 L -0.12187 2.40491 L -0.08419 2.38399 L -0.04768 2.36191 L -0.01238 2.33871 L 0.02161 2.31443 L 0.05423 2.28912 L 0.08543 2.26284 L 0.11512 2.23563 L 0.14326 2.20757 L 0.16978 2.17869 L 0.19463 2.14906 L 0.21776 2.11874 L 0.21776 2.10822" />
    <path d="M 0.21776 2.11874 L 0.79457 1.32459" />
    <path d="M 3.20598 -1.99539 L 6.63738 -6.71968 L 6.63738 -6.73021 A 1 0.78186 180 0 0 6.76782 -7.1163 L 6.76782 -7.0958 L 6.76782 -7.09651 L 6.76782 -7.09722 L 6.76781 -7.09794 L 6.76781 -7.09865 L 6.76781 -7.09937 L 6.7678 -7.10008 L 6.76779 -7.1008 L 6.76779 -7.10151 L 6.76778 -7.10222 L 6.76777 -7.10294 L 6.76776 -7.10365 L 6.76775 -7.10436 L 6.76774 -7.10508 L 6.76773 -7.10579" />
    <path d="M 6.63738 -6.71968 L 6.655 -6.74497 L 6.67142 -6.77064 L 6.6866 -6.79667 L 6.70054 -6.82301 L 6.7132 -6.84963 L 6.72458 -6.8765 L 6.73466 -6.90357 L 6.74342 -6.93082 L 6.75085 -6.9582 L 6.75695 -6.98567 L 6.7617 -7.01321 L 6.7651 -7.04077 L 6.76714 -7.06831 L 6.76782 -7.0958" />
    <path d="M 6.76782 -7.1163 A 1 0.78186 180 0 0 6.26163 -7.79618 L 3.65294 -8.95447" />
    <path d="M 3.20295 -2.00173 L 6.63738 -6.73021" />
    <path d="M 4.32989 0.55258 L 4.37258 0.4451" />
    <path d="M 1.82234 -3.25528 L 2.17694 -4.1481" />
    <path d="M 0.73381 -3.88798 L 1.08841 -4.78079" />
    <path d="M -2.0251 -4.72609 L -1.6705 -5.61891" />
    <path d="M 10.70953 -4.73437 L 10.61915 -5.30227" />
    <path d="M -2.57543 -5.27102 L -2.78558 -4.7419" />
    <path d="M -10.57831 -9.89901 L -11.14486 -9.1003" />
    <path d="M -6.63177 -7.5705 L -6.65222 -7.53294" />
</svg>