<svg version="1.1" xmlns="http://www.w3.org/2000/svg" viewBox="-15.015148177610241 -13.202382361767244 30.030296355220486 38.33482432033878" fill="none" stroke="black" stroke-width="0.6%" vector-effect="non-scaling-stroke">
    <path d="M 5.63017 1.65141 A 2.5 0.78074 112.9834 0 1 5.71788 2.52896" />
    <path d="M -0.65605 23.85424 L 2.61404 5.27082 L 3.26997 5.54902 L -0.00012 24.13244 L 0.05456 24.08343 L 1.43921 22.54328 L 5.05241 5.70133 L 10.90863 -2.37879" />
    <path d="M 10.40978 -1.6905 L 11.92663 7.64276 L 12.58256 7.92096 L 10.90863 -2.37879" />
    <path d="M 11.43058 -6.53635 L 9.65306 -4.08382" />
    <path d="M 9.20804 -3.46981 L 5.77391 1.26843" />
    <path d="M 1.95543 -3.80655 L 0.5571 -1.34463 L 0.74956 -0.71868 L 2.61404 5.27082" />
    <path d="M 12.08651 -6.25815 L 11.43058 -6.53635" />
    <path d="M 12.08651 -6.25815 L 5.71788 2.52896" />
    <path d="M 5.63233 1.65466 L 5.79838 1.42555" />
    <path d="M 9.20804 -3.46981 L 9.31386 -3.42493 L 9.67753 -3.9267" />
    <path d="M 5.63017 1.65141 L 2.61136 -3.52835" />
    <path d="M 1.21303 -1.06643 L 2.61136 -3.52835" />
    <path d="M 1.21303 -1.06643 L 1.40549 -0.44048 L 3.26997 5.54902" />
    <path d="M 12.58256 7.92096 L 14.01515 5.60884 L 12.08651 -6.25815" />
    <path d="M 1.95543 -3.80655 L 2.61136 -3.52835" />
    <path d="M -0.65605 23.85424 L -0.00012 24.13244" />
    <path d="M 9.64561 -4.13167 L 9.67753 -3.9267" />
    <path d="M 9.28047 -4.25352 L 9.64561 -4.13167" />
    <path d="M -3.22722 -9.59146 L -3.05699 -9.50387" />
    <path d="M 8.38686 -2.33678 L 8.0078 -2.49755" />
    <path d="M 9.28194 -3.62989 L 9.31386 -3.42493" />
    <path d="M 8.9168 -3.75174 L 9.28194 -3.62989 L 9.64561 -4.13167" />
    <path d="M -3.59089 -9.08968 L -3.42066 -9.00209" />
    <path d="M -3.62281 -8.9118 L -3.59089 -9.08968 L -3.22722 -9.59146" />
    <path d="M -3.62281 -8.9118 L -3.51825 -8.86745" />
    <path d="M 5.76646 1.22059 L 5.79838 1.42555" />
    <path d="M 5.40132 1.09874 L 5.76646 1.22059" />
    <path d="M 0.21024 1.19278 L 0.2022 1.18937" />
    <path d="M -3.85418 -0.53108 L -3.9307 -0.56353" />
    <path d="M -7.47004 -3.73743 L -7.29982 -3.64984" />
    <path d="M -7.50196 -3.55954 L -7.47004 -3.73743 L -7.41412 -3.81459" />
    <path d="M -7.50196 -3.55954 L -7.3974 -3.51519" />
    <path d="M -6.70098 -5.34842 L -10.77887 -7.07798 L -10.90325 -7.36028 L -10.31623 -8.45399 L -10.74774 -9.19439" />
    <path d="M -6.69467 -5.34475 L -6.70098 -5.34842" />
    <path d="M -6.69413 -5.34551 L -6.69467 -5.34475" />
    <path d="M -2.18316 -3.43226 L -6.69413 -5.34551" />
    <path d="M -2.17545 -3.42899 L -2.18262 -3.43105" />
    <path d="M 0.98067 -2.09038 L -2.17545 -3.42899" />
    <path d="M 1.08573 -2.27535 L -2.29983 -3.71128 L -2.30701 -3.71334 L -2.18262 -3.43105" />
    <path d="M -2.29983 -3.71128 L -2.17545 -3.42899" />
    <path d="M -1.70294 -4.52528 L 1.79434 -3.52293" />
    <path d="M -1.89767 -4.58293 L -1.70387 -4.52739" />
    <path d="M -6.31622 -6.45698 L -1.89767 -4.58293" />
    <path d="M -6.4881 -6.55675 L -6.31622 -6.45698" />
    <path d="M -6.48914 -6.55527 L -6.4881 -6.55675" />
    <path d="M -10.1455 -8.67761 L -6.48914 -6.55527" />
    <path d="M -10.32283 -8.78264 L -10.14673 -8.68042" />
    <path d="M -10.4238 -8.63856 L -10.32283 -8.78264" />
    <path d="M -6.82536 -5.63071 L -10.90325 -7.36028" />
    <path d="M -6.81905 -5.62705 L -6.82536 -5.63071 L -6.70098 -5.34842" />
    <path d="M -6.81852 -5.62781 L -6.81905 -5.62705 L -6.69467 -5.34475" />
    <path d="M -2.30668 -3.71419 L -6.81852 -5.62781 L -6.69413 -5.34551" />
    <path d="M -2.30701 -3.71334 L -2.30668 -3.71419" />
    <path d="M 0.5571 -1.34463 L 1.21303 -1.06643" />
    <path d="M 0.74956 -0.71868 L 1.40549 -0.44048" />
    <path d="M 0.79871 -0.5608 L -1.30477 -1.45295 L -1.31195 -1.45501 L -1.18756 -1.17272" />
    <path d="M -1.30477 -1.45295 L -1.18039 -1.17066 L -1.18756 -1.17272" />
    <path d="M 0.88103 -0.29635 L -1.18039 -1.17066" />
    <path d="M -0.70788 -2.26695 L 0.83052 -1.82603" />
    <path d="M -0.90261 -2.3246 L -0.70881 -2.26906" />
    <path d="M -5.32116 -4.19865 L -0.90261 -2.3246" />
    <path d="M -5.49304 -4.29842 L -5.32116 -4.19865" />
    <path d="M -5.49408 -4.29694 L -5.49304 -4.29842" />
    <path d="M -8.94591 -6.30057 L -5.49408 -4.29694" />
    <path d="M -9.90819 -5.10194 L -9.20573 -6.41076" />
    <path d="M -5.8303 -3.37238 L -9.90819 -5.10194" />
    <path d="M -5.82399 -3.36871 L -5.8303 -3.37238 L -5.70592 -3.09009 L -9.78381 -4.81965 L -9.90819 -5.10194" />
    <path d="M -5.82346 -3.36947 L -5.82399 -3.36871 L -5.69961 -3.08642 L -5.70592 -3.09009" />
    <path d="M -1.31162 -1.45586 L -5.82346 -3.36947 L -5.69907 -3.08718 L -5.69961 -3.08642" />
    <path d="M -1.31195 -1.45501 L -1.31162 -1.45586" />
    <path d="M -1.1881 -1.17393 L -5.69907 -3.08718" />
    <path d="M 5.55174 1.51684 L 5.76646 1.22059" />
    <path d="M -1.92852 -12.20238 L -5.34744 -7.48513" />
    <path d="M -1.27259 -11.92418 L -1.92852 -12.20238" />
    <path d="M -1.27259 -11.92418 L -1.32756 -11.84834" />
    <path d="M -7.68403 -3.92907 A 2.5 0.78074 112.9834 0 1 -7.63524 -3.18704" />
    <path d="M -12.14607 -6.73247 L -10.74774 -9.19439" />
    <path d="M -12.14607 -6.73247 L -11.95361 -6.10651 L -10.08913 -0.11701 L -13.35922 18.46641 L -13.30454 18.4174 L -11.9199 16.87725 L -8.30669 0.0353 L -7.29153 -1.36537" />
    <path d="M -0.77654 2.25492 L -0.8898 1.55801" />
    <path d="M -0.77654 2.25492 L -0.32844 1.53172" />
    <path d="M -1.26762 -11.89356 L -1.27259 -11.92418" />
    <path d="M 2.28734 -3.71049 L 2.31157 -3.6555" />
    <path d="M 2.54659 -4.37637 L 3.87334 -1.36526 A 1 0.30373 201.27292 0 1 3.87666 -1.35731" />
    <path d="M -0.70788 -2.26695 L -1.00028 -2.93056" />
    <path d="M -1.70294 -4.52528 L -1.86879 -4.90167 A 1 0.30373 201.27292 0 1 -1.87707 -4.99978 A 1 0.30373 201.27292 0 1 -1.11105 -5.01335 L -0.85179 -5.67923 L 1.45717 -5.01747 A 1 0.30373 201.27292 0 1 2.54659 -4.37637" />
    <path d="M -6.65498 -6.93166 L -6.48914 -6.55527" />
    <path d="M -5.78648 -4.96055 L -5.49408 -4.29694" />
    <path d="M -6.23585 -7.52973 L -6.07233 -7.15859" />
    <path d="M -10.1455 -8.67761 L -10.31134 -9.054 A 1 0.22761 215.02277 0 1 -10.31774 -9.15627 A 1 0.22761 215.02277 0 1 -9.66466 -8.95876 L -9.24553 -9.55683 L -7.21422 -8.37775 A 1 0.22761 215.02277 0 1 -6.23585 -7.52973" />
    <path d="M -11.40367 -9.47259 L -10.74774 -9.19439" />
    <path d="M 1.19791 -4.35158 A 1 0.30373 201.27292 0 1 2.28734 -3.71049 L 2.54659 -4.37637" />
    <path d="M -1.11105 -5.01335 L 1.19791 -4.35158 L 1.45717 -5.01747" />
    <path d="M -7.63335 -7.77968 A 1 0.22761 215.02277 0 1 -6.65498 -6.93166 L -6.23585 -7.52973" />
    <path d="M -9.66466 -8.95876 L -7.63335 -7.77968 L -7.21422 -8.37775" />
    <path d="M -11.40367 -9.47259 L -12.802 -7.01067 L -12.14607 -6.73247" />
    <path d="M -12.802 -7.01067 L -12.60954 -6.38471 L -11.95361 -6.10651" />
    <path d="M -12.60954 -6.38471 L -10.74506 -0.39522 L -10.08913 -0.11701" />
    <path d="M -14.01515 18.18821 L -10.74506 -0.39522" />
    <path d="M -1.53968 1.317 L -1.43247 1.97672 L -0.77654 2.25492" />
    <path d="M -14.01515 18.18821 L -13.35922 18.46641" />
    <path d="M -1.61781 -5.66566 A 1 0.30373 201.27292 0 1 -0.85179 -5.67923" />
    <path d="M -9.89861 -9.75434 A 1 0.22761 215.02277 0 1 -9.24553 -9.55683" />
    <path d="M -3.33908 0.55382 L -1.15265 1.48116 L -1.15265 0.99812 A 1 0.76498 180 0 0 0.20682 0.70002 L 0.89543 -0.25009" />
    <path d="M -3.33908 0.07078 L -1.15265 0.99812" />
    <path d="M -1.15265 1.48116 A 1 0.76498 180 0 0 0.20682 1.18306 L 0.20682 0.70002" />
    <path d="M 0.20682 1.18306 L 0.20904 1.18" />
    <path d="M 3.05302 -3.22702 L 6.51044 -7.9974 A 1 0.76498 180 0 0 6.63587 -8.36833 L 6.63587 -7.92146" />
    <path d="M 6.63587 -8.36833 A 1 0.76498 180 0 0 6.12077 -9.03736 L 3.93433 -9.9647 A 1 0.76498 180 0 0 2.57487 -9.66661 L -0.40738 -5.55186" />
    <path d="M -3.01789 -1.95001 L -3.72876 -0.96919 A 1 0.76498 180 0 0 -3.85418 -0.59825 L -3.85418 -0.11521 A 1 0.76498 180 0 0 -3.33908 0.55382 L -3.33908 0.07078" />
    <path d="M -3.85418 -0.59825 A 1 0.76498 180 0 0 -3.33908 0.07078" />
    <path d="M -7.4585 -1.45129 L -5.28837 -0.33464 L -5.20843 -0.78017 A 1 0.79734 190.17177 0 0 -3.85548 -1.00255 L -3.13331 -1.99896" />
    <path d="M -7.37857 -1.89682 L -5.20843 -0.78017" />
    <path d="M -5.28837 -0.33464 A 1 0.79734 190.17177 0 0 -3.93542 -0.55701 L -3.85548 -1.00255" />
    <path d="M -3.93542 -0.55701 L -3.84897 -0.6763" />
    <path d="M -0.53232 -5.58767 L 2.44814 -9.69996 A 1 0.79734 190.17177 0 0 2.56437 -9.97002 L 2.48856 -9.54753" />
    <path d="M 2.56437 -9.97002 A 1 0.79734 190.17177 0 0 2.06498 -10.81566 L -0.10515 -11.93231 A 1 0.79734 190.17177 0 0 -1.4581 -11.70994 L -4.71085 -7.22197" />
    <path d="M -7.23536 -3.73877 L -7.76173 -3.01252 A 1 0.79734 190.17177 0 0 -7.87796 -2.74246 L -7.95789 -2.29692 A 1 0.79734 190.17177 0 0 -7.4585 -1.45129 L -7.37857 -1.89682" />
    <path d="M -7.87796 -2.74246 A 1 0.79734 190.17177 0 0 -7.37857 -1.89682" />
    <path d="M 0.79665 2.24622 L 1.77404 2.57238" />
    <path d="M 0.71671 1.73287 L 1.60498 2.0293" />
    <path d="M 5.34963 1.17005 L 10.62335 -6.10635 L 10.54341 -6.6197 A 1 0.72122 171.14899 0 0 10.66345 -7.06324 L 10.74339 -6.5499" />
    <path d="M 5.14817 0.82438 L 10.54341 -6.6197" />
    <path d="M 10.62335 -6.10635 A 1 0.72122 171.14899 0 0 10.74339 -6.5499" />
    <path d="M 10.66345 -7.06324 A 1 0.72122 171.14899 0 0 10.16025 -7.57841 L 7.99012 -8.30261 A 1 0.72122 171.14899 0 0 6.63717 -7.92326 L 3.12125 -3.07217" />
    <path d="M 0.94965 -0.07591 L 0.33355 0.77416 A 1 0.72122 171.14899 0 0 0.21351 1.21771 L 0.29345 1.73105 A 1 0.72122 171.14899 0 0 0.79665 2.24622 L 0.71671 1.73287" />
    <path d="M 0.21351 1.21771 A 1 0.72122 171.14899 0 0 0.71671 1.73287" />
    <path d="M -5.50907 -6.77885 L -3.32263 -5.85152 L -2.9809 -6.48824 A 1 0.26766 208.22313 0 1 -1.94048 -5.74091 L -1.75362 -5.31684" />
    <path d="M -5.16733 -7.41558 L -2.9809 -6.48824" />
    <path d="M -3.32263 -5.85152 A 1 0.26766 208.22313 0 1 -2.28222 -5.10419 L -1.94048 -5.74091" />
    <path d="M -2.28222 -5.10419 L -2.08814 -4.66372" />
    <path d="M -1.39899 -3.09967 L -1.09307 -2.40538" />
    <path d="M -5.02865 -4.07459 L -5.33457 -4.76888" />
    <path d="M -6.02371 -6.33292 L -6.2178 -6.7734 A 1 0.26766 208.22313 0 1 -6.22434 -6.87537 A 1 0.26766 208.22313 0 1 -5.50907 -6.77885 L -5.16733 -7.41558" />
    <path d="M -5.8826 -7.51209 A 1 0.26766 208.22313 0 1 -5.16733 -7.41558" />
    <path d="M 3.87282 -1.36391 L 3.87334 -1.36526" />
    <path d="M -5.17637 -4.13725 L -5.10262 -4.24248" />
    <path d="M 6.51044 -7.74841 L 6.51044 -7.9974" />
    <path d="M 2.39849 -9.42325 L 2.44814 -9.69996" />
    <path d="M -0.84073 -2.30687 L -0.77743 -2.4248" />
    <path d="M -1.61781 -5.66566 L -1.87707 -4.99978" />
    <path d="M -5.07249 -4.17408 L -5.11619 -4.11172" />
    <path d="M -9.89861 -9.75434 L -10.31774 -9.15627" />
    <path d="M -0.74981 -2.36211 L -0.78763 -2.29165" />
    <path d="M -5.8826 -7.51209 L -6.22434 -6.87537" />
</svg>