<svg version="1.1" xmlns="http://www.w3.org/2000/svg" viewBox="-15.492441545724327 -13.940003288078453 30.984883091448655 39.19046619023394" fill="none" stroke="black" stroke-width="0.6%" vector-effect="non-scaling-stroke">
    <path d="M 10.27251 -4.55559 L 12.36216 8.04638 L 13.01107 8.33241 L 14.49244 6.04996 L 12.40279 -6.55202 L 10.92142 -4.26956" />
    <path d="M 10.27251 -4.55559 L 10.92142 -4.26956" />
    <path d="M 13.01107 8.33241 L 10.92142 -4.26956" />
    <path d="M 11.75388 -6.83805 L 10.27251 -4.55559" />
    <path d="M 11.75388 -6.83805 L 12.40279 -6.55202" />
    <path d="M 5.82188 1.77855 A 2.5 0.81381 113.78719 0 1 5.83387 3.09219" />
    <path d="M 2.05134 -3.8304 L 2.70025 -3.54437" />
    <path d="M 5.82188 1.77855 L 2.70025 -3.54437" />
    <path d="M 1.2543 -1.10977 L 2.70025 -3.54437" />
    <path d="M 0.60539 -1.3958 L 1.2543 -1.10977 L 1.45331 -0.47231 L 3.38129 5.628 L -0.00017 24.25046 L 0.05637 24.2029 L 1.48818 22.697 L 5.83387 3.09219" />
    <path d="M 2.05134 -3.8304 L 0.60539 -1.3958 L 0.80441 -0.75834 L 2.73238 5.34197 L -0.64908 23.96443 L -0.00017 24.25046" />
    <path d="M 0.80441 -0.75834 L 1.45331 -0.47231" />
    <path d="M 2.73238 5.34197 L 3.38129 5.628" />
    <path d="M -3.57086 -10.65755 L -3.41556 -9.72098" />
    <path d="M -3.01271 -7.29154 L -2.10482 -1.81636" />
    <path d="M -1.75459 0.29578 L -1.48121 1.94443 L -0.8323 2.23045 L -0.06111 1.04223" />
    <path d="M -3.57086 -10.65755 L -2.92195 -10.37152" />
    <path d="M -0.8323 2.23045 L -1.10568 0.58181" />
    <path d="M -1.45591 -1.53033 L -2.3638 -7.00551" />
    <path d="M -2.7737 -9.47745 L -2.92195 -10.37152" />
    <path d="M -2.08948 -12.94 L -3.57086 -10.65755" />
    <path d="M -1.44058 -12.65397 L -2.92195 -10.37152" />
    <path d="M 0.5506 -0.64589 L -0.35729 -6.12107" />
    <path d="M -0.73356 -8.39023 L -1.44058 -12.65397" />
    <path d="M -2.08948 -12.94 L -1.44058 -12.65397" />
    <path d="M -8.02148 -4.3234 A 2.5 0.81381 113.78719 0 1 -8.0095 -3.00976" />
    <path d="M -11.79202 -9.93236 L -11.14311 -9.64633" />
    <path d="M -8.02148 -4.3234 L -11.14311 -9.64633" />
    <path d="M -12.58907 -7.21172 L -11.14311 -9.64633" />
    <path d="M -13.23798 -7.49775 L -12.58907 -7.21172 L -12.39005 -6.57426 L -10.46207 -0.47396 L -13.84353 18.14851 L -13.78699 18.10095 L -12.35519 16.59504 L -8.0095 -3.00976" />
    <path d="M -11.79202 -9.93236 L -13.23798 -7.49775 L -13.03896 -6.86029 L -11.11098 -0.75999 L -14.49244 17.86248 L -13.84353 18.14851" />
    <path d="M -13.03896 -6.86029 L -12.39005 -6.57426" />
    <path d="M -11.11098 -0.75999 L -10.46207 -0.47396" />
    <path d="M 5.83273 1.79551 L 5.91576 1.68653 L 5.91576 2.03357" />
    <path d="M 5.71638 1.59865 L 5.91576 1.68653" />
    <path d="M 5.91282 2.66421 L 5.91576 2.66036" />
    <path d="M 5.91576 2.64106 L 5.91576 2.66036" />
    <path d="M 1.60567 1.77693 L -7.87106 -2.40028 L -7.87106 -2.75735 L -8.04815 -2.83541" />
    <path d="M -8.01064 -4.30645 L -7.92761 -4.41542 L -7.57607 -4.26047" />
    <path d="M -7.90597 -3.74657 L -7.80763 -3.70322 L -7.74949 -4.03286 L -3.54114 -1.79015 L 0.77718 0.1133 L 1.11737 0.23191" />
    <path d="M -7.74949 -4.03286 L -7.37344 -4.52642 L -3.16509 -2.28371 L 0.88678 -0.49771" />
    <path d="M -3.54114 -1.79015 L -3.16509 -2.28371" />
    <path d="M 0.77718 0.1133 L 0.99114 -0.16751" />
    <path d="M 9.05494 -3.30319 L 9.43099 -3.79675 L 9.92703 -3.57811 L 9.92703 -2.60428" />
    <path d="M 9.55097 -3.08455 L 9.92703 -3.57811" />
    <path d="M 9.05494 -3.30319 L 9.55097 -3.08455 L 9.55097 -2.11072 L 9.11837 -2.3014 L 9.11837 -1.94433 L -3.85979 -7.66491 L -3.85979 -8.02199 L -4.29239 -8.21267 L -4.29239 -9.1865 L -3.79635 -8.96786 L -3.73822 -9.2975 L 0.47013 -7.05479 L 4.78845 -5.15134 L 8.9968 -3.68408 L 9.05494 -3.30319 Z" />
    <path d="M 9.55097 -2.11072 L 9.92703 -2.60428" />
    <path d="M 9.11837 -1.94433 L 9.32203 -2.21163" />
    <path d="M -4.29239 -9.1865 L -3.91633 -9.68006 L -3.5648 -9.52511" />
    <path d="M -3.73822 -9.2975 L -3.36216 -9.79106 L 0.84619 -7.54835 L 5.16451 -5.6449 L 9.37286 -4.17764 L 9.43099 -3.79675" />
    <path d="M 0.47013 -7.05479 L 0.84619 -7.54835" />
    <path d="M 4.78845 -5.15134 L 5.16451 -5.6449" />
    <path d="M 8.9968 -3.68408 L 9.37286 -4.17764" />
</svg>