<svg version="1.1" xmlns="http://www.w3.org/2000/svg" viewBox="-15.015086012705634 -13.231493833494353 30.03017202541126 38.33075609168444" fill="none" stroke="black" stroke-width="0.6%" vector-effect="non-scaling-stroke">
    <path d="M 5.63022 1.60227 A 2.5 0.78208 112.95774 0 1 5.71792 2.4817" />
    <path d="M 1.95551 -3.87662 L 0.5572 -1.41615 L 0.74966 -0.78832 L 2.61411 5.21915 L -0.65593 23.82141 L 0 24.09926 L 0.05468 24.05039 L 1.4393 22.51322" />
    <path d="M 10.40929 -1.72527 L 11.92659 7.63318 L 12.58252 7.91104 L 10.90861 -2.41338" />
    <path d="M 9.6531 -4.12305 L 11.43054 -6.57249" />
    <path d="M 9.20803 -3.50971 L 5.774 1.22265" />
    <path d="M 1.95551 -3.87662 L 2.61144 -3.59877" />
    <path d="M 5.63022 1.60227 L 2.61144 -3.59877" />
    <path d="M 1.21313 -1.13829 L 2.61144 -3.59877" />
    <path d="M 1.21313 -1.13829 L 1.40559 -0.51046 L 3.27004 5.49701 L 0 24.09926" />
    <path d="M 5.05246 5.65685 L 1.4393 22.51322" />
    <path d="M 5.05246 5.65685 L 10.90861 -2.41338" />
    <path d="M 12.58252 7.91104 L 14.01509 5.60076 L 12.08647 -6.29464 L 11.43054 -6.57249" />
    <path d="M 12.08647 -6.29464 L 5.71792 2.4817" />
    <path d="M 5.63338 1.60708 L 5.79841 1.37965" />
    <path d="M 9.20803 -3.50971 L 9.31385 -3.46489 L 9.67751 -3.96605" />
    <path d="M -6.2034 -4.27726 L -10.28131 -6.00468 L -10.40569 -6.28796 L -9.74171 -7.52453 L -10.74771 -9.25777" />
    <path d="M -6.19709 -4.2736 L -6.2034 -4.27726" />
    <path d="M -6.19656 -4.27436 L -6.19709 -4.2736" />
    <path d="M -1.68557 -2.36348 L -6.19656 -4.27436" />
    <path d="M -1.67786 -2.36022 L -1.68503 -2.36227" />
    <path d="M 0.55815 -1.41303 L -1.67786 -2.36022" />
    <path d="M 0.66158 -1.59982 L -1.80224 -2.6435 L -1.80942 -2.64556 L -1.68503 -2.36227" />
    <path d="M -1.80224 -2.6435 L -1.67786 -2.36022" />
    <path d="M -1.40009 -3.51474 L 1.30923 -2.73943" />
    <path d="M -5.81865 -5.38646 L -1.40009 -3.51474" />
    <path d="M -9.82528 -7.70963 L -5.81865 -5.38646" />
    <path d="M -9.83834 -7.69101 L -9.82528 -7.70963" />
    <path d="M -6.32779 -4.56054 L -10.40569 -6.28796" />
    <path d="M -6.32148 -4.55689 L -6.32779 -4.56054 L -6.2034 -4.27726" />
    <path d="M -6.32094 -4.55765 L -6.32148 -4.55689 L -6.19709 -4.2736" />
    <path d="M -1.80909 -2.6464 L -6.32094 -4.55765 L -6.19656 -4.27436" />
    <path d="M -1.80942 -2.64556 L -1.80909 -2.6464" />
    <path d="M 0.5572 -1.41615 L 1.21313 -1.13829" />
    <path d="M 0.74966 -0.78832 L 1.40559 -0.51046" />
    <path d="M 2.61411 5.21915 L 3.27004 5.49701" />
    <path d="M 9.6456 -4.17133 L 9.67751 -3.96605" />
    <path d="M 5.39169 -5.58799 L 9.6456 -4.17133" />
    <path d="M 1.02662 -7.43706 L 5.39169 -5.58799" />
    <path d="M -3.22729 -9.62434 L 1.02662 -7.43706" />
    <path d="M 8.38442 -2.37471 L -3.49519 -7.40697 L -3.49519 -8.89086 L -5.97315 -5.47604" />
    <path d="M 9.28193 -3.67017 L 9.31385 -3.46489" />
    <path d="M 5.02802 -5.08683 L 9.28193 -3.67017 L 9.6456 -4.17133" />
    <path d="M 0.66296 -6.9359 L 5.02802 -5.08683 L 5.39169 -5.58799" />
    <path d="M -3.59095 -9.12318 L 0.66296 -6.9359 L 1.02662 -7.43706" />
    <path d="M -3.62287 -8.94494 L -3.59095 -9.12318 L -3.22729 -9.62434" />
    <path d="M -3.62287 -8.94494 L -3.49519 -8.89086" />
    <path d="M 5.76649 1.17438 L 5.79841 1.37965" />
    <path d="M 5.28969 1.01559 L 5.76649 1.17438" />
    <path d="M -2.85248 -2.09136 L 0.82929 -0.53174" />
    <path d="M -7.10639 -4.27864 L -2.85248 -2.09136" />
    <path d="M 1.5245 1.7083 L -7.37429 -2.06127 L -7.37429 -3.54516 L -7.64123 -3.1773" />
    <path d="M -3.21615 -1.5902 L 1.06342 0.22265" />
    <path d="M -7.47005 -3.77748 L -3.21615 -1.5902 L -2.85248 -2.09136" />
    <path d="M -7.50197 -3.59924 L -7.47005 -3.77748 L -7.10639 -4.27864" />
    <path d="M -7.50197 -3.59924 L -7.37429 -3.54516" />
    <path d="M 5.55279 1.46888 L 5.76649 1.17438" />
    <path d="M -11.40364 -9.53562 L -10.74771 -9.25777" />
    <path d="M -7.72894 -4.05672 L -8.39603 -5.20606" />
    <path d="M -7.72894 -4.05672 A 2.5 0.78208 112.95774 0 1 -7.64123 -3.1773" />
    <path d="M -12.14602 -6.79729 L -10.74771 -9.25777" />
    <path d="M -12.14602 -6.79729 L -11.95356 -6.16946 L -10.08911 -0.16199 L -13.35915 18.44026 L -13.30448 18.39139 L -11.91985 16.85422" />
    <path d="M -8.30669 -0.00215 L -11.91985 16.85422" />
    <path d="M -8.30669 -0.00215 L -6.94458 -1.87924" />
    <path d="M -5.72054 -3.56606 L -5.43933 -3.95359" />
    <path d="M -4.73322 -4.92667 L -3.06548 -7.22494" />
    <path d="M -0.77663 2.25204 L -1.04099 0.62155" />
    <path d="M -1.37968 -1.46747 L -1.51311 -2.29043" />
    <path d="M -1.73458 -3.65643 L -2.25767 -6.88275" />
    <path d="M -0.77663 2.25204 L -0.03091 1.04942" />
    <path d="M 0.56072 -0.64551 L 0.42729 -1.46846" />
    <path d="M 0.16829 -3.06592 L -0.31727 -6.06079" />
    <path d="M -0.68292 -8.31607 L -1.27268 -11.95364 L -1.92862 -12.23149" />
    <path d="M -1.27268 -11.95364 L -3.03477 -9.52535" />
    <path d="M -6.69265 -4.4845 L -6.91387 -4.17965" />
    <path d="M -7.78746 -4.15756 L -7.34859 -4.76236" />
    <path d="M -6.57674 -5.82602 L -1.92862 -12.23149" />
    <path d="M -11.40364 -9.53562 L -12.80196 -7.07514 L -12.14602 -6.79729" />
    <path d="M -12.80196 -7.07514 L -12.60949 -6.44732 L -11.95356 -6.16946" />
    <path d="M -12.60949 -6.44732 L -10.74504 -0.43985 L -10.08911 -0.16199" />
    <path d="M -10.74504 -0.43985 L -14.01509 18.16241 L -13.35915 18.44026" />
    <path d="M -2.9136 -7.16061 L -2.39051 -3.93429" />
    <path d="M -2.16904 -2.56828 L -2.03561 -1.74533" />
    <path d="M -1.69692 0.34369 L -1.43256 1.97418 L -0.77663 2.25204" />
</svg>