<svg version="1.1" xmlns="http://www.w3.org/2000/svg" viewBox="-15.01508601270563 -12.630920787200088 30.03017202541126 38.39855953740139" fill="none" stroke="black" stroke-width="0.6%" vector-effect="non-scaling-stroke">
    <path d="M 5.63022 2.60713 A 2.5 0.754 113.46681 0 1 5.71792 3.44764" />
    <path d="M -0.65593 24.48288 L 2.61411 6.27481 L 3.27004 6.55957 L 0 24.76764 L 0.05468 24.71595 L 1.4393 23.11808 L 5.05246 6.56449 L 10.90861 -1.70614" />
    <path d="M 10.41916 -1.01489 L 11.92659 7.82273 L 12.58252 8.10749 L 10.90861 -1.70614" />
    <path d="M 11.43054 -5.8314 L 9.65194 -3.31948" />
    <path d="M 9.20803 -2.69256 L 5.77283 2.15897" />
    <path d="M 1.95551 -2.43927 L 0.5572 0.04991 L 0.74966 0.63908 L 2.61411 6.27481" />
    <path d="M 12.08647 -5.54664 L 11.43054 -5.8314" />
    <path d="M 12.08647 -5.54664 L 5.71792 3.44764" />
    <path d="M 5.61303 2.58003 L 5.79841 2.31822" />
    <path d="M 9.20803 -2.69256 L 9.31385 -2.64662 L 9.67751 -3.16023" />
    <path d="M 5.63022 2.60713 L 2.61144 -2.15451" />
    <path d="M 1.21313 0.33466 L 2.61144 -2.15451" />
    <path d="M 1.21313 0.33466 L 1.40559 0.92384 L 3.27004 6.55957" />
    <path d="M 12.58252 8.10749 L 14.01509 5.76025 L 12.08647 -5.54664" />
    <path d="M 1.95551 -2.43927 L 2.61144 -2.15451" />
    <path d="M -0.65593 24.48288 L 0 24.76764" />
    <path d="M 9.6456 -3.35895 L 9.67751 -3.16023" />
    <path d="M 5.39169 -4.8342 L 9.6456 -3.35895" />
    <path d="M 1.02662 -6.72918 L 5.39169 -4.8342" />
    <path d="M -3.22729 -8.94738 L 1.02662 -6.72918" />
    <path d="M 8.43323 -1.59831 L -3.49519 -6.77672 L -3.49519 -8.20733 L -4.6344 -6.59842" />
    <path d="M 9.28193 -2.84535 L 9.31385 -2.64662" />
    <path d="M 5.02802 -4.3206 L 9.28193 -2.84535 L 9.6456 -3.35895" />
    <path d="M 0.66296 -6.21558 L 5.02802 -4.3206 L 5.39169 -4.8342" />
    <path d="M -3.59095 -8.43377 L 0.66296 -6.21558 L 1.02662 -6.72918" />
    <path d="M -3.62287 -8.26276 L -3.59095 -8.43377 L -3.22729 -8.94738" />
    <path d="M -3.62287 -8.26276 L -3.49519 -8.20733" />
    <path d="M 5.76649 2.11949 L 5.79841 2.31822" />
    <path d="M 5.19554 1.92149 L 5.76649 2.11949" />
    <path d="M -0.44664 -0.2063 L 0.62555 0.25916" />
    <path d="M -4.69838 -2.21327 L -4.63618 -2.18084" />
    <path d="M 1.36367 2.49509 L -7.37429 -1.29827 L -7.37429 -2.72888 L -7.64123 -2.35189" />
    <path d="M -3.21615 -0.73713 L 0.8831 1.04245" />
    <path d="M -7.47005 -2.95532 L -3.21615 -0.73713 L -3.06403 -0.95196" />
    <path d="M -7.50197 -2.78431 L -7.47005 -2.95532 L -7.31426 -3.17536" />
    <path d="M -7.50197 -2.78431 L -7.37429 -2.72888" />
    <path d="M -6.2034 -3.08647 L -10.28131 -4.85678 L -10.40569 -5.11949 L -9.74171 -6.36723 L -10.74771 -7.95404" />
    <path d="M -6.19709 -3.08273 L -6.2034 -3.08647" />
    <path d="M -6.19656 -3.0835 L -6.19709 -3.08273" />
    <path d="M -1.68563 -1.12519 L -6.19656 -3.0835" />
    <path d="M -1.67786 -1.12182 L -1.68503 -1.12394" />
    <path d="M 0.64817 -0.11204 L -1.67786 -1.12182" />
    <path d="M 0.74243 -0.27983 L -1.80224 -1.38453 L -1.80942 -1.38664 L -1.68503 -1.12394" />
    <path d="M -1.80224 -1.38453 L -1.67786 -1.12182" />
    <path d="M -1.40009 -2.26399 L 1.39396 -1.43964" />
    <path d="M -5.81865 -4.1822 L -1.40009 -2.26399" />
    <path d="M -5.99053 -4.28399 L -5.81865 -4.1822" />
    <path d="M -5.99157 -4.28249 L -5.99053 -4.28399" />
    <path d="M -9.64795 -6.44786 L -5.99157 -4.28249" />
    <path d="M -9.82528 -6.555 L -9.64934 -6.4508" />
    <path d="M -9.84384 -6.52832 L -9.82528 -6.555" />
    <path d="M -6.32779 -3.34917 L -10.40569 -5.11949" />
    <path d="M -6.32148 -3.34544 L -6.32779 -3.34917 L -6.2034 -3.08647" />
    <path d="M -6.32094 -3.3462 L -6.32148 -3.34544 L -6.19709 -3.08273" />
    <path d="M -1.80909 -1.3875 L -6.32094 -3.3462 L -6.19656 -3.0835" />
    <path d="M -1.80942 -1.38664 L -1.80909 -1.3875" />
    <path d="M 0.5572 0.04991 L 1.21313 0.33466" />
    <path d="M 0.74966 0.63908 L 1.40559 0.92384" />
    <path d="M 5.53149 2.4514 L 5.76649 2.11949" />
    <path d="M -1.92862 -11.63092 L -5.29033 -6.88318" />
    <path d="M -7.73609 -3.42905 L -7.81147 -3.32258" />
    <path d="M -1.27268 -11.34616 L -1.92862 -11.63092" />
    <path d="M -1.27268 -11.34616 L -3.04024 -8.84984" />
    <path d="M -7.72894 -3.1924 A 2.5 0.754 113.46681 0 1 -7.64123 -2.35189" />
    <path d="M -7.72894 -3.1924 L -7.99059 -3.60512" />
    <path d="M -12.14602 -5.46486 L -10.74771 -7.95404" />
    <path d="M -12.14602 -5.46486 L -11.95356 -4.87569 L -10.08911 0.76004 L -13.35915 18.96811 L -13.30448 18.91642 L -11.91985 17.31855 L -8.30669 0.76496 L -6.97005 -1.12278" />
    <path d="M -3.45536 -6.08657 L -3.09094 -6.60123" />
    <path d="M -0.77663 2.30796 L -0.91332 1.50659" />
    <path d="M -1.92441 -4.4211 L -2.23272 -6.22865" />
    <path d="M -0.77663 2.30796 L -0.41861 1.72135" />
    <path d="M 0.50558 0.20708 L 0.57264 0.09719" />
    <path d="M 0.6446 -0.10569 L 0.64315 -0.11422" />
    <path d="M 0.3653 -1.74313 L -0.25321 -5.3693" />
    <path d="M -0.63276 -7.59446 L -1.27268 -11.34616" />
    <path d="M -7.06954 -6.55928 L -5.99157 -4.28249" />
    <path d="M -5.22399 -2.66128 L -4.9136 -2.0057 L -4.69922 -2.31398" />
    <path d="M -6.65042 -7.16197 L -6.47668 -6.79502" />
    <path d="M -7.59161 -3.33961 A 1 0.20481 214.8155 0 1 -8.52151 -4.09281" />
    <path d="M -5.56029 -2.13662 L -7.59161 -3.33961" />
    <path d="M -4.9136 -2.0057 A 1 0.20481 214.8155 0 1 -4.90514 -1.91596 A 1 0.20481 214.8155 0 1 -5.56029 -2.13662" />
    <path d="M -9.64795 -6.44786 L -10.72592 -8.72465 A 1 0.20481 214.8155 0 1 -10.73438 -8.81439 A 1 0.20481 214.8155 0 1 -10.07923 -8.59373 L -9.66011 -9.19642 L -7.62879 -7.99344 A 1 0.20481 214.8155 0 1 -6.65042 -7.16197" />
    <path d="M -11.40364 -8.23879 L -10.74771 -7.95404" />
    <path d="M -8.04791 -7.39074 A 1 0.20481 214.8155 0 1 -7.06954 -6.55928 L -6.65042 -7.16197" />
    <path d="M -10.07923 -8.59373 L -8.04791 -7.39074 L -7.62879 -7.99344" />
    <path d="M -11.40364 -8.23879 L -12.80196 -5.74962 L -12.14602 -5.46486" />
    <path d="M -12.80196 -5.74962 L -12.60949 -5.16044 L -11.95356 -4.87569" />
    <path d="M -12.60949 -5.16044 L -10.74504 0.47529 L -10.08911 0.76004" />
    <path d="M -14.01509 18.68336 L -10.74504 0.47529" />
    <path d="M -2.88865 -6.51341 L -2.75076 -5.705" />
    <path d="M -1.56925 1.22183 L -1.43256 2.02321 L -0.77663 2.30796" />
    <path d="M -14.01509 18.68336 L -13.35915 18.96811" />
    <path d="M -10.31526 -9.41708 A 1 0.20481 214.8155 0 1 -9.66011 -9.19642" />
    <path d="M -5.92362 -6.36756 L -3.73718 -5.41837 L -3.39544 -6.06056 A 1 0.24338 208.01941 0 1 -2.35502 -5.33061 L -0.82241 -2.09356" />
    <path d="M -5.58188 -7.00974 L -3.39544 -6.06056" />
    <path d="M -3.73718 -5.41837 A 1 0.24338 208.01941 0 1 -2.69676 -4.68843 L -2.35502 -5.33061" />
    <path d="M -2.69676 -4.68843 L -1.58738 -2.3453" />
    <path d="M -0.83483 -0.75584 L -0.54082 -0.13486 L -0.32755 -0.53562" />
    <path d="M -0.54082 -0.13486 A 1 0.24338 208.01941 0 1 -0.53261 -0.04476 A 1 0.24338 208.01941 0 1 -1.24956 -0.16425 L -3.436 -1.11344 A 1 0.24338 208.01941 0 1 -4.47641 -1.84339 L -4.77043 -2.46438" />
    <path d="M -5.52297 -4.05384 L -6.63235 -6.39696 A 1 0.24338 208.01941 0 1 -6.64056 -6.48706 A 1 0.24338 208.01941 0 1 -5.92362 -6.36756 L -5.58188 -7.00974" />
    <path d="M -6.29883 -7.12924 A 1 0.24338 208.01941 0 1 -5.58188 -7.00974" />
    <path d="M -4.67051 -2.25335 L -4.90514 -1.91596" />
    <path d="M -10.31526 -9.41708 L -10.73438 -8.81439" />
    <path d="M -0.28194 -0.51582 L -0.53261 -0.04476" />
    <path d="M -6.29883 -7.12924 L -6.64056 -6.48706" />
</svg>