<svg version="1.1" xmlns="http://www.w3.org/2000/svg" viewBox="-15.492441545724327 -14.801920933537781 30.984883091448655 40.05238383569327" fill="none" stroke="black" stroke-width="0.6%" vector-effect="non-scaling-stroke">
    <path d="M 5.82188 1.77855 A 2.5 0.81381 113.78719 0 1 5.83387 3.09219" />
    <path d="M 2.05134 -3.8304 L 0.60539 -1.3958 L 0.80441 -0.75834 L 2.73238 5.34197 L -0.64908 23.96443 L -0.00017 24.25046 L 0.05637 24.2029 L 1.48818 22.697 L 5.83387 3.09219" />
    <path d="M 9.55097 -2.43533 L 5.9379 2.30669" />
    <path d="M 10.43229 -3.59201 L 9.92703 -2.92889 L 9.55097 -2.43533" />
    <path d="M 10.8192 -1.2587 L 12.36216 8.04638 L 13.01107 8.33241 L 14.49244 6.04996 L 12.49811 -5.97716 L 11.8492 -6.26319" />
    <path d="M 10.32177 -4.25849 L 10.43229 -3.59201" />
    <path d="M 10.32177 -4.25849 L 11.8492 -6.26319" />
    <path d="M 13.56225 -7.69996 L 12.31207 -6.05916" />
    <path d="M 5.82188 1.77855 L 2.70025 -3.54437" />
    <path d="M 1.2543 -1.10977 L 2.70025 -3.54437" />
    <path d="M 1.2543 -1.10977 L 1.45331 -0.47231 L 3.38129 5.628 L -0.00017 24.25046" />
    <path d="M 2.05134 -3.8304 L 2.70025 -3.54437" />
    <path d="M 10.75674 -3.449 L 5.85884 2.9793" />
    <path d="M 10.75674 -3.449 L 10.43229 -3.59201" />
    <path d="M 0.60539 -1.3958 L 1.2543 -1.10977" />
    <path d="M 0.77718 0.1133 L 1.11737 0.23191" />
    <path d="M -3.54114 -1.79015 L 0.77718 0.1133 L 0.99114 -0.16751" />
    <path d="M -7.74949 -4.03286 L -3.54114 -1.79015 L -3.16509 -2.28371 L 0.88678 -0.49771" />
    <path d="M -7.80763 -3.70322 L -7.74949 -4.03286 L -7.44943 -4.42668" />
    <path d="M -7.90597 -3.74657 L -7.80763 -3.70322" />
    <path d="M -7.98275 -3.13119 L -7.97921 -3.12963 L -7.98452 -3.12266" />
    <path d="M -7.97921 -2.80502 L -7.97921 -3.12963" />
    <path d="M -7.87106 -2.75735 L -7.97921 -2.80502" />
    <path d="M -7.87106 -2.40028 L -7.87106 -2.75735" />
    <path d="M 1.60567 1.77693 L -7.87106 -2.40028" />
    <path d="M 0.80441 -0.75834 L 1.45331 -0.47231" />
    <path d="M 2.73238 5.34197 L 3.38129 5.628" />
    <path d="M -5.92734 -3.75577 L -3.16509 -2.28371" />
    <path d="M -7.92761 -4.41542 L -7.57607 -4.26047" />
    <path d="M 5.91576 1.68653 L 5.91576 2.03357" />
    <path d="M 5.71638 1.59865 L 5.91576 1.68653" />
    <path d="M 8.9968 -3.68408 L 9.05494 -3.30319 L 9.55097 -3.08455 L 9.92703 -3.57811 L 9.92703 -2.92889" />
    <path d="M 4.78845 -5.15134 L 8.9968 -3.68408 L 9.37286 -4.17764 L 9.43099 -3.79675 L 9.92703 -3.57811" />
    <path d="M 0.47013 -7.05479 L 4.78845 -5.15134 L 5.16451 -5.6449 L 9.37286 -4.17764" />
    <path d="M -3.73822 -9.2975 L 0.47013 -7.05479 L 0.84619 -7.54835 L 5.16451 -5.6449" />
    <path d="M -3.79635 -8.96786 L -3.73822 -9.2975 L -3.36216 -9.79106 L 0.84619 -7.54835" />
    <path d="M -4.29239 -9.1865 L -3.79635 -8.96786" />
    <path d="M -4.29239 -8.53728 L -4.29239 -9.1865 L -3.91633 -9.68006 L -3.5648 -9.52511" />
    <path d="M -4.29239 -8.53728 L -3.96794 -8.39427 L -6.33992 -5.28113" />
    <path d="M -3.96794 -8.06966 L -3.96794 -8.39427" />
    <path d="M -3.85979 -8.02199 L -3.96794 -8.06966" />
    <path d="M -3.85979 -7.66491 L -3.85979 -8.02199" />
    <path d="M 9.11837 -1.94433 L -3.85979 -7.66491" />
    <path d="M 9.11837 -2.3014 L 9.11837 -1.94433 L 9.32203 -2.21163" />
    <path d="M 9.36583 -2.19233 L 9.11837 -2.3014" />
    <path d="M 9.55097 -3.08455 L 9.55097 -2.43533" />
    <path d="M 5.14857 6.18377 L 11.06618 -1.58286" />
    <path d="M 10.75674 -3.449 L 11.06618 -1.58286" />
    <path d="M 10.97068 -3.97246 L 13.01107 8.33241" />
    <path d="M 10.32177 -4.25849 L 10.97068 -3.97246" />
    <path d="M 12.49811 -5.97716 L 10.97068 -3.97246" />
    <path d="M 12.8406 -3.91172 L 13.8867 -5.28468 L 13.8867 -7.55695 L 12.53116 -5.77786" />
    <path d="M 13.56225 -7.69996 L 13.8867 -7.55695" />
    <path d="M -2.10606 -3.4149 L 1.19483 -2.38826" />
    <path d="M -6.4773 -5.34168 L -2.10606 -3.4149" />
    <path d="M -10.27804 -7.58453 L -6.4773 -5.34168" />
    <path d="M -11.05824 -6.38242 L -10.27804 -7.58453" />
    <path d="M -7.02401 -4.60419 L -11.05824 -6.38242" />
    <path d="M -7.01781 -4.60053 L -7.02401 -4.60419 L -6.95871 -4.21038 L -10.99294 -5.98861 L -11.05824 -6.38242" />
    <path d="M -7.01724 -4.60121 L -7.01781 -4.60053 L -6.9525 -4.20672 L -6.95871 -4.21038" />
    <path d="M -2.5537 -2.63374 L -7.01724 -4.60121 L -6.95194 -4.20739 L -6.9525 -4.20672" />
    <path d="M -2.55407 -2.63298 L -2.5537 -2.63374" />
    <path d="M -2.54693 -2.63076 L -2.55407 -2.63298 L -2.48876 -2.23917" />
    <path d="M 0.66133 -1.2166 L -2.54693 -2.63076 L -2.48163 -2.23695 L -2.48876 -2.23917" />
    <path d="M -2.48893 -2.24017 L -6.95194 -4.20739" />
    <path d="M 0.79348 -0.79333 L -2.48163 -2.23695" />
    <path d="M 5.83273 1.79551 L 5.91576 1.68653" />
    <path d="M -8.01064 -4.30645 L -7.92761 -4.41542" />
    <path d="M -11.79202 -9.93236 L -13.23798 -7.49775 L -12.58907 -7.21172 L -11.14311 -9.64633" />
    <path d="M -13.23798 -7.49775 L -13.03896 -6.86029 L -12.39005 -6.57426 L -10.46207 -0.47396 L -13.84353 18.14851 L -13.78699 18.10095 L -12.35519 16.59504 L -8.0095 -3.00976" />
    <path d="M -13.03896 -6.86029 L -11.11098 -0.75999 L -10.46207 -0.47396" />
    <path d="M -11.11098 -0.75999 L -14.49244 17.86248 L -13.84353 18.14851" />
    <path d="M -3.01271 -7.29154 L -2.39069 -3.54037" />
    <path d="M -2.15035 -2.09092 L -2.10482 -1.81636" />
    <path d="M -1.75459 0.29578 L -1.48121 1.94443 L -0.8323 2.23045 L -0.06111 1.04223" />
    <path d="M -0.28112 -13.80192 L -1.53129 -12.16112" />
    <path d="M -3.52159 -10.36045 L -1.99416 -12.36514" />
    <path d="M -3.52159 -10.36045 L -3.41556 -9.72098" />
    <path d="M -4.29239 -8.53728 L -6.64969 -5.44341" />
    <path d="M -8.69479 0.08181 L -7.07198 -2.04806" />
    <path d="M -5.81603 -3.69645 L -5.81018 -3.70413" />
    <path d="M -5.04389 -4.70986 L -3.06071 -7.31269" />
    <path d="M 9.05494 -3.30319 L 9.43099 -3.79675" />
    <path d="M -8.02148 -4.3234 A 2.5 0.81381 113.78719 0 1 -8.0095 -3.00976" />
    <path d="M -8.02148 -4.3234 L -8.30259 -4.80275" />
    <path d="M -9.75189 -7.27404 L -11.14311 -9.64633" />
    <path d="M -12.58907 -7.21172 L -12.39005 -6.57426" />
    <path d="M -11.79202 -9.93236 L -11.14311 -9.64633" />
    <path d="M -2.87269 -10.07442 L -2.7737 -9.47745" />
    <path d="M -2.3638 -7.00551 L -1.75005 -3.30418" />
    <path d="M -1.50144 -1.80489 L -1.45591 -1.53033" />
    <path d="M -1.10568 0.58181 L -0.8323 2.23045" />
    <path d="M -3.52159 -10.36045 L -2.87269 -10.07442" />
    <path d="M -1.34525 -12.07911 L -1.99416 -12.36514" />
    <path d="M 0.5506 -0.64589 L 0.50507 -0.92045" />
    <path d="M 0.21094 -2.69427 L -0.35729 -6.12107" />
    <path d="M -0.73356 -8.39023 L -1.34525 -12.07911 L -2.87269 -10.07442" />
    <path d="M -1.00276 -10.01367 L 0.04334 -11.38664 L 0.04334 -13.65891 L -1.3122 -11.87981" />
    <path d="M -0.28112 -13.80192 L 0.04334 -13.65891" />
</svg>