<svg version="1.1" xmlns="http://www.w3.org/2000/svg" viewBox="-15.015086012705632 -13.231493833494353 30.03017202541126 38.33075609168444" fill="none" stroke="black" stroke-width="0.6%" vector-effect="non-scaling-stroke">
    <path d="M 5.63022 1.60227 A 2.5 0.78208 112.95774 0 1 5.71792 2.4817" />
    <path d="M -0.65593 23.82141 L 2.61411 5.21915 L 3.27004 5.49701 L 0 24.09926 L 0.05468 24.05039 L 1.4393 22.51322 L 5.05246 5.65685 L 10.90861 -2.41338" />
    <path d="M 10.40929 -1.72527 L 11.92659 7.63318 L 12.58252 7.91104 L 10.90861 -2.41338" />
    <path d="M 11.43054 -6.57249 L 9.6531 -4.12305" />
    <path d="M 9.20803 -3.50971 L 5.774 1.22265" />
    <path d="M 1.95551 -3.87662 L 0.5572 -1.41615 L 0.74966 -0.78832 L 2.61411 5.21915" />
    <path d="M 12.08647 -6.29464 L 11.43054 -6.57249" />
    <path d="M 12.08647 -6.29464 L 5.71792 2.4817" />
    <path d="M 5.63338 1.60708 L 5.79841 1.37965" />
    <path d="M 9.20803 -3.50971 L 9.31385 -3.46489 L 9.67751 -3.96605" />
    <path d="M 5.63022 1.60227 L 2.61144 -3.59877" />
    <path d="M 1.21313 -1.13829 L 2.61144 -3.59877" />
    <path d="M 1.21313 -1.13829 L 1.40559 -0.51046 L 3.27004 5.49701" />
    <path d="M 12.58252 7.91104 L 14.01509 5.60076 L 12.08647 -6.29464" />
    <path d="M 1.95551 -3.87662 L 2.61144 -3.59877" />
    <path d="M -0.65593 23.82141 L 0 24.09926" />
    <path d="M 9.6456 -4.17133 L 9.67751 -3.96605" />
    <path d="M 5.39169 -5.58799 L 9.6456 -4.17133" />
    <path d="M 1.02662 -7.43706 L 5.39169 -5.58799" />
    <path d="M -3.22729 -9.62434 L 1.02662 -7.43706" />
    <path d="M 8.38442 -2.37471 L -3.49519 -7.40697 L -3.49519 -8.89086 L -5.47458 -6.16311" />
    <path d="M 9.28193 -3.67017 L 9.31385 -3.46489" />
    <path d="M 5.02802 -5.08683 L 9.28193 -3.67017 L 9.6456 -4.17133" />
    <path d="M 0.66296 -6.9359 L 5.02802 -5.08683 L 5.39169 -5.58799" />
    <path d="M -3.59095 -9.12318 L 0.66296 -6.9359 L 1.02662 -7.43706" />
    <path d="M -3.62287 -8.94494 L -3.59095 -9.12318 L -3.22729 -9.62434" />
    <path d="M -3.62287 -8.94494 L -3.49519 -8.89086" />
    <path d="M 5.76649 1.17438 L 5.79841 1.37965" />
    <path d="M 5.28969 1.01559 L 5.76649 1.17438" />
    <path d="M 1.5245 1.7083 L -7.37429 -2.06127 L -7.37429 -3.54516 L -7.64123 -3.1773" />
    <path d="M -3.21615 -1.5902 L 1.06342 0.22265" />
    <path d="M -7.47005 -3.77748 L -3.21615 -1.5902 L -2.93905 -1.97206" />
    <path d="M -7.50197 -3.59924 L -7.47005 -3.77748 L -7.40681 -3.86463" />
    <path d="M -7.50197 -3.59924 L -7.37429 -3.54516" />
    <path d="M -6.70093 -5.41041 L -10.77884 -7.13783 L -10.90322 -7.42111 L -10.31621 -8.51433 L -10.74771 -9.25777" />
    <path d="M -6.69462 -5.40675 L -6.70093 -5.41041" />
    <path d="M -6.69409 -5.40751 L -6.69462 -5.40675" />
    <path d="M -2.18309 -3.49663 L -6.69409 -5.40751" />
    <path d="M -2.17539 -3.49337 L -2.18256 -3.49542" />
    <path d="M 0.97845 -2.15739 L -2.17539 -3.49337" />
    <path d="M 1.08408 -2.34324 L -2.29977 -3.77665 L -2.30694 -3.77871 L -2.18256 -3.49542" />
    <path d="M -2.29977 -3.77665 L -2.17539 -3.49337" />
    <path d="M -1.89761 -4.64789 L 1.79354 -3.59161" />
    <path d="M -6.31617 -6.51961 L -1.89761 -4.64789" />
    <path d="M -10.32281 -8.84278 L -6.31617 -6.51961" />
    <path d="M -10.42349 -8.69917 L -10.32281 -8.84278" />
    <path d="M -6.82531 -5.69369 L -10.90322 -7.42111" />
    <path d="M -6.819 -5.69004 L -6.82531 -5.69369 L -6.70093 -5.41041" />
    <path d="M -6.81847 -5.6908 L -6.819 -5.69004 L -6.69462 -5.40675" />
    <path d="M -2.30661 -3.77955 L -6.81847 -5.6908 L -6.69409 -5.40751" />
    <path d="M -2.30694 -3.77871 L -2.30661 -3.77955" />
    <path d="M 0.5572 -1.41615 L 1.21313 -1.13829" />
    <path d="M 0.74966 -0.78832 L 1.40559 -0.51046" />
    <path d="M -5.70588 -3.14411 L -9.78379 -4.87153 L -9.90817 -5.15481 L -9.20203 -6.46989" />
    <path d="M -5.69957 -3.14045 L -5.70588 -3.14411" />
    <path d="M -5.69904 -3.14121 L -5.69957 -3.14045" />
    <path d="M -1.18804 -1.23033 L -5.69904 -3.14121" />
    <path d="M -1.18034 -1.22707 L -1.18751 -1.22912" />
    <path d="M 0.88502 -0.35217 L -1.18034 -1.22707" />
    <path d="M 0.80262 -0.61768 L -1.30472 -1.51035 L -1.31189 -1.51241 L -1.18751 -1.22912" />
    <path d="M -1.30472 -1.51035 L -1.18034 -1.22707" />
    <path d="M -0.90256 -2.38159 L 0.82493 -1.88724" />
    <path d="M -5.32112 -4.25331 L -0.90256 -2.38159" />
    <path d="M -8.98637 -6.37853 L -5.32112 -4.25331" />
    <path d="M -5.83026 -3.42739 L -9.90817 -5.15481" />
    <path d="M -5.82395 -3.42374 L -5.83026 -3.42739 L -5.70588 -3.14411" />
    <path d="M -5.82342 -3.4245 L -5.82395 -3.42374 L -5.69957 -3.14045" />
    <path d="M -1.31156 -1.51325 L -5.82342 -3.4245 L -5.69904 -3.14121" />
    <path d="M -1.31189 -1.51241 L -1.31156 -1.51325" />
    <path d="M 5.55279 1.46888 L 5.76649 1.17438" />
    <path d="M -1.92862 -12.23149 L -6.13051 -6.44096" />
    <path d="M -6.83662 -5.46789 L -7.00815 -5.2315" />
    <path d="M -1.27268 -11.95364 L -1.92862 -12.23149" />
    <path d="M -1.27268 -11.95364 L -3.03477 -9.52535" />
    <path d="M -6.18069 -5.19003 L -6.40456 -4.88152" />
    <path d="M -7.68983 -3.98452 A 2.5 0.78208 112.95774 0 1 -7.64123 -3.1773" />
    <path d="M -12.14602 -6.79729 L -10.74771 -9.25777" />
    <path d="M -12.14602 -6.79729 L -11.95356 -6.16946 L -10.08911 -0.16199 L -13.35915 18.44026 L -13.30448 18.39139 L -11.91985 16.85422 L -8.30669 -0.00215 L -6.94458 -1.87924" />
    <path d="M -5.24519 -4.22114 L -4.92737 -4.65912" />
    <path d="M -4.22126 -5.63219 L -3.06548 -7.22494" />
    <path d="M -0.77663 2.25204 L -1.04099 0.62155" />
    <path d="M -1.574 -2.66601 L -1.67369 -3.28084" />
    <path d="M -1.89521 -4.6472 L -2.25767 -6.88275" />
    <path d="M -0.77663 2.25204 L -0.03091 1.04942" />
    <path d="M 0.33674 -2.02694 L 0.26671 -2.45888" />
    <path d="M -0.00016 -4.1049 L -0.31727 -6.06079" />
    <path d="M -0.68292 -8.31607 L -1.27268 -11.95364" />
    <path d="M -11.40364 -9.53562 L -10.74771 -9.25777" />
    <path d="M -11.40364 -9.53562 L -12.80196 -7.07514 L -12.14602 -6.79729" />
    <path d="M -12.80196 -7.07514 L -12.60949 -6.44732 L -11.95356 -6.16946" />
    <path d="M -12.60949 -6.44732 L -10.74504 -0.43985 L -10.08911 -0.16199" />
    <path d="M -14.01509 18.16241 L -10.74504 -0.43985" />
    <path d="M -2.9136 -7.16061 L -2.55109 -4.9247" />
    <path d="M -2.32962 -3.5587 L -2.22993 -2.94387" />
    <path d="M -1.69692 0.34369 L -1.43256 1.97418 L -0.77663 2.25204" />
    <path d="M -14.01509 18.16241 L -13.35915 18.44026" />
</svg>