<svg version="1.1" xmlns="http://www.w3.org/2000/svg" viewBox="-15.01508601270563 -12.625772423886287 30.030172025411257 38.398995899290824" fill="none" stroke="black" stroke-width="0.6%" vector-effect="non-scaling-stroke">
    <path d="M 5.63022 2.61566 A 2.5 0.75376 113.47104 0 1 5.71792 3.45583" />
    <path d="M -0.65593 24.48841 L 2.61411 6.28376 L 3.27004 6.56857 L 0 24.77322 L 0.05468 24.72151 L 1.4393 23.12313 L 5.05246 6.57218 L 10.90861 -1.70012" />
    <path d="M 10.41924 -1.00885 L 11.92659 7.82431 L 12.58252 8.10913 L 10.90861 -1.70012" />
    <path d="M 11.43054 -5.82507 L 9.65193 -3.31264" />
    <path d="M 9.20803 -2.6856 L 5.77282 2.16692" />
    <path d="M 1.95551 -2.42705 L 0.5572 0.06236 L 0.74966 0.65121 L 2.61411 6.28376" />
    <path d="M 12.08647 -5.54026 L 11.43054 -5.82507" />
    <path d="M 12.08647 -5.54026 L 5.71792 3.45583" />
    <path d="M 5.61286 2.5883 L 5.79841 2.32619" />
    <path d="M 9.20803 -2.6856 L 9.31385 -2.63966 L 9.67751 -3.15337" />
    <path d="M 5.63022 2.61566 L 2.61144 -2.14223" />
    <path d="M 1.21313 0.34718 L 2.61144 -2.14223" />
    <path d="M 1.21313 0.34718 L 1.40559 0.93602 L 3.27004 6.56857" />
    <path d="M 12.58252 8.10913 L 14.01509 5.76158 L 12.08647 -5.54026" />
    <path d="M 1.95551 -2.42705 L 2.61144 -2.14223" />
    <path d="M -0.65593 24.48841 L 0 24.77322" />
    <path d="M 9.6456 -3.35204 L 9.67751 -3.15337" />
    <path d="M 5.39169 -4.82778 L 9.6456 -3.35204" />
    <path d="M 1.02662 -6.72314 L 5.39169 -4.82778" />
    <path d="M -3.22729 -8.94159 L 1.02662 -6.72314" />
    <path d="M 8.43364 -1.5917 L -3.49519 -6.77134 L -3.49519 -8.20149 L -4.78034 -6.38611" />
    <path d="M 9.28193 -2.83833 L 9.31385 -2.63966" />
    <path d="M 5.02802 -4.31407 L 9.28193 -2.83833 L 9.6456 -3.35204" />
    <path d="M 0.66296 -6.20943 L 5.02802 -4.31407 L 5.39169 -4.82778" />
    <path d="M -3.59095 -8.42788 L 0.66296 -6.20943 L 1.02662 -6.72314" />
    <path d="M -3.62287 -8.25693 L -3.59095 -8.42788 L -3.22729 -8.94159" />
    <path d="M -3.62287 -8.25693 L -3.49519 -8.20149" />
    <path d="M 5.76649 2.12752 L 5.79841 2.32619" />
    <path d="M 5.19463 1.92913 L 5.76649 2.12752" />
    <path d="M -0.44593 -0.19864 L 0.62369 0.26581" />
    <path d="M 1.3622 2.5017 L -7.37429 -1.29178 L -7.37429 -2.72193 L -7.64123 -2.34486" />
    <path d="M -3.21615 -0.72988 L 0.88145 1.04935" />
    <path d="M -7.47005 -2.94833 L -4.15486 -1.21942" />
    <path d="M -3.39919 -0.82534 L -3.21615 -0.72988 L -3.2075 -0.7421" />
    <path d="M -7.50197 -2.77737 L -7.47005 -2.94833 L -7.28988 -3.20284" />
    <path d="M -7.50197 -2.77737 L -7.37429 -2.72193" />
    <path d="M -6.2034 -3.07634 L -10.28131 -4.84701 L -10.40569 -5.10954 L -9.74171 -6.35738 L -10.74771 -7.94293" />
    <path d="M -6.19709 -3.0726 L -6.2034 -3.07634" />
    <path d="M -6.19656 -3.07336 L -6.19709 -3.0726" />
    <path d="M -1.68563 -1.11467 L -6.19656 -3.07336" />
    <path d="M -1.67786 -1.11129 L -1.68503 -1.11341" />
    <path d="M 0.64894 -0.10097 L -1.67786 -1.11129" />
    <path d="M 0.7431 -0.2686 L -1.80224 -1.37382 L -1.80942 -1.37594 L -1.68503 -1.11341" />
    <path d="M -1.80224 -1.37382 L -1.67786 -1.11129" />
    <path d="M -1.64157 -2.35821 L -1.40009 -2.25336 L 1.39467 -1.42859" />
    <path d="M -1.7327 -2.18695 L -1.64157 -2.35821" />
    <path d="M -5.66829 -3.89583 L -1.7327 -2.18695" />
    <path d="M -5.81865 -4.17195 L -5.79405 -4.16127" />
    <path d="M -6.01262 -4.28684 L -5.81865 -4.17195" />
    <path d="M -6.08568 -4.19227 L -6.01262 -4.28684" />
    <path d="M -7.90126 -5.40552 L -6.08568 -4.19227" />
    <path d="M -9.82528 -6.54516 L -7.90126 -5.40552" />
    <path d="M -9.84389 -6.51841 L -9.82528 -6.54516" />
    <path d="M -6.32779 -3.33887 L -10.40569 -5.10954" />
    <path d="M -6.32148 -3.33513 L -6.32779 -3.33887 L -6.2034 -3.07634" />
    <path d="M -6.32094 -3.3359 L -6.32148 -3.33513 L -6.19709 -3.0726" />
    <path d="M -1.80909 -1.3768 L -6.32094 -3.3359 L -6.19656 -3.07336" />
    <path d="M -1.80942 -1.37594 L -1.80909 -1.3768" />
    <path d="M 0.5572 0.06236 L 1.21313 0.34718" />
    <path d="M 0.74966 0.65121 L 1.40559 0.93602" />
    <path d="M 5.5313 2.45975 L 5.76649 2.12752" />
    <path d="M -1.92862 -11.62577 L -5.43627 -6.67092" />
    <path d="M -7.69697 -3.4775 L -7.81168 -3.31545" />
    <path d="M -1.27268 -11.34096 L -1.92862 -11.62577" />
    <path d="M -1.27268 -11.34096 L -3.04029 -8.84407" />
    <path d="M -7.72894 -3.18504 A 2.5 0.75376 113.47104 0 1 -7.64123 -2.34486" />
    <path d="M -7.72894 -3.18504 L -8.13737 -3.82876" />
    <path d="M -12.14602 -5.45352 L -10.74771 -7.94293" />
    <path d="M -12.14602 -5.45352 L -11.95356 -4.86467 L -10.08911 0.76788 L -13.35915 18.97253 L -13.30448 18.92081 L -11.91985 17.32243 L -8.30669 0.77148 L -6.97026 -1.11635" />
    <path d="M -3.60191 -5.87442 L -3.09116 -6.5959" />
    <path d="M -0.77663 2.30843 L -0.91217 1.51414" />
    <path d="M -1.80105 -3.69474 L -2.2325 -6.22306" />
    <path d="M -0.77663 2.30843 L -0.42185 1.72705" />
    <path d="M 0.50208 0.213 L 0.57004 0.10165" />
    <path d="M 0.64621 -0.0961 L 0.64509 -0.10264" />
    <path d="M 0.36707 -1.73184 L -0.25263 -5.36338" />
    <path d="M -0.6323 -7.58828 L -1.27268 -11.34096" />
    <path d="M -2.81067 -4.46221 L -1.7327 -2.18695" />
    <path d="M -1.10529 -0.86268 L -0.65473 0.08831 L -0.32824 -0.52527" />
    <path d="M -2.46894 -5.10444 L -1.07233 -2.15663" />
    <path d="M -4.59032 -1.62057 L -5.04088 -2.57156" />
    <path d="M -3.54991 -0.89078 A 1 0.24316 208.0177 0 1 -4.59032 -1.62057" />
    <path d="M -1.36347 0.0586 L -3.54991 -0.89078" />
    <path d="M -0.65473 0.08831 A 1 0.24316 208.0177 0 1 -0.64651 0.1783 A 1 0.24316 208.0177 0 1 -1.36347 0.0586" />
    <path d="M -5.66829 -3.89583 L -6.74626 -6.17109 A 1 0.24316 208.0177 0 1 -6.75449 -6.26108 A 1 0.24316 208.0177 0 1 -6.03753 -6.14138 L -5.69579 -6.78361 L -3.50935 -5.83423 A 1 0.24316 208.0177 0 1 -2.46894 -5.10444" />
    <path d="M -7.16365 -6.46753 L -6.08568 -4.19227" />
    <path d="M -5.38955 -2.72295 L -5.00771 -1.91701 L -4.83604 -2.1392" />
    <path d="M -6.7132 -7.05055 L -6.53479 -6.67397" />
    <path d="M -10.6834 -8.81958 A 1 0.18711 217.69004 0 1 -10.69256 -8.9083 A 1 0.18711 217.69004 0 1 -10.06708 -8.64695 L -9.61663 -9.22996 L -7.66121 -7.92327 A 1 0.18711 217.69004 0 1 -6.7132 -7.05055" />
    <path d="M -9.52022 -6.36447 L -10.6834 -8.81958" />
    <path d="M -7.57945 -3.39635 A 1 0.18711 217.69004 0 1 -8.30646 -3.98951" />
    <path d="M -5.62404 -2.08965 L -7.57945 -3.39635" />
    <path d="M -5.00771 -1.91701 A 1 0.18711 217.69004 0 1 -4.99855 -1.8283 A 1 0.18711 217.69004 0 1 -5.62404 -2.08965" />
    <path d="M -8.11166 -7.34025 A 1 0.18711 217.69004 0 1 -7.16365 -6.46753 L -6.7132 -7.05055" />
    <path d="M -10.06708 -8.64695 L -8.11166 -7.34025 L -7.66121 -7.92327" />
    <path d="M -11.40364 -8.22774 L -10.74771 -7.94293" />
    <path d="M -3.85109 -5.192 A 1 0.24316 208.0177 0 1 -2.81067 -4.46221 L -2.46894 -5.10444" />
    <path d="M -6.03753 -6.14138 L -3.85109 -5.192 L -3.50935 -5.83423" />
    <path d="M -11.40364 -8.22774 L -12.80196 -5.73833 L -12.14602 -5.45352" />
    <path d="M -12.80196 -5.73833 L -12.60949 -5.14949 L -11.95356 -4.86467" />
    <path d="M -12.60949 -5.14949 L -10.74504 0.48306 L -10.08911 0.76788" />
    <path d="M -14.01509 18.68771 L -10.74504 0.48306" />
    <path d="M -2.88843 -6.50788 L -2.69056 -5.34834" />
    <path d="M -1.56811 1.22933 L -1.43256 2.02362 L -0.77663 2.30843" />
    <path d="M -14.01509 18.68771 L -13.35915 18.97253" />
    <path d="M -0.29903 -0.51259 A 1 0.24316 208.0177 0 1 -0.30477 -0.46393 L -0.64651 0.1783" />
    <path d="M -6.41276 -6.90331 A 1 0.24316 208.0177 0 1 -5.69579 -6.78361" />
    <path d="M -10.24212 -9.49131 A 1 0.18711 217.69004 0 1 -9.61663 -9.22996" />
    <path d="M -6.41276 -6.90331 L -6.75449 -6.26108" />
    <path d="M -4.80651 -2.07686 L -4.99855 -1.8283" />
    <path d="M -10.24212 -9.49131 L -10.69256 -8.9083" />
</svg>