<svg version="1.1" xmlns="http://www.w3.org/2000/svg" viewBox="-15.267025569659056 -12.67675553959373 30.534051139318123 38.55432198594813" fill="none" stroke="black" stroke-width="0.6%" vector-effect="non-scaling-stroke">
    <path d="M 5.72775 2.74113 A 2.5 0.76968 113.94169 0 1 5.81707 3.58478" />
    <path d="M -0.87571 24.49147 L 2.45455 6.28494 L 3.32411 6.67103 L -0.00615 24.87757 L 0.04954 24.82649 L 1.45966 23.24352 L 5.13935 6.69995 L 11.10335 -1.51118" />
    <path d="M 10.45491 -0.61842 L 11.93851 7.96176 L 12.80808 8.34786 L 11.10335 -1.51118" />
    <path d="M 11.43333 -5.73088 L 5.51817 2.41301" />
    <path d="M 1.78382 -2.45833 L 0.35976 0.01784 L 0.55576 0.61098 L 2.45455 6.28494" />
    <path d="M 12.30289 -5.34478 L 11.43333 -5.73088" />
    <path d="M 12.30289 -5.34478 L 5.81707 3.58478" />
    <path d="M 5.72775 2.74113 L 2.65339 -2.07223" />
    <path d="M 1.22932 0.40393 L 2.65339 -2.07223" />
    <path d="M 1.22932 0.40393 L 1.42533 0.99707 L 3.32411 6.67103" />
    <path d="M 12.80808 8.34786 L 14.26702 6.01442 L 12.30289 -5.34478" />
    <path d="M 1.78382 -2.45833 L 2.65339 -2.07223" />
    <path d="M -0.87571 24.49147 L -0.00615 24.87757" />
    <path d="M 5.7411 6.01747 L 5.66092 5.98187" />
    <path d="M 5.7411 5.87147 L 5.7411 6.01747 L 6.23492 5.33759" />
    <path d="M 6.23492 5.19159 L 6.23492 5.33759" />
    <path d="M 9.69164 0.57844 L 9.61145 0.54284" />
    <path d="M 9.69164 0.43244 L 9.69164 0.57844 L 10.18545 -0.10144" />
    <path d="M 10.18545 -0.24744 L 10.18545 -0.10144" />
    <path d="M 4.37258 0.4451 A 1 0.27774 201.6618 0 1 4.38232 0.53486 L 4.35788 0.5964" />
    <path d="M -5.87688 -2.05532 L -9.71403 -3.75905 L -9.88292 -4.11238 L -9.27263 -5.23306" />
    <path d="M -5.87061 -2.05154 L -5.87688 -2.05532" />
    <path d="M -5.87007 -2.0523 L -5.87061 -2.05154" />
    <path d="M -1.38501 -0.06089 L -5.87007 -2.0523" />
    <path d="M -1.37726 -0.05745 L -1.3844 -0.05962" />
    <path d="M 0.63039 0.83397 L -1.37726 -0.05745" />
    <path d="M 0.5215 0.50729 L -1.54616 -0.41077 L -1.5533 -0.41294 L -1.3844 -0.05962" />
    <path d="M -1.54616 -0.41077 L -1.37726 -0.05745" />
    <path d="M -5.49486 -3.22218 L -1.17553 -1.30436" />
    <path d="M -5.49859 -3.21692 L -5.49486 -3.22218" />
    <path d="M -7.62773 -4.50271 L -5.49859 -3.21692" />
    <path d="M -6.04577 -2.40864 L -9.88292 -4.11238" />
    <path d="M -6.03951 -2.40486 L -6.04577 -2.40864 L -5.87688 -2.05532" />
    <path d="M -6.03897 -2.40562 L -6.03951 -2.40486 L -5.87061 -2.05154" />
    <path d="M -1.55296 -0.41379 L -6.03897 -2.40562 L -5.87007 -2.0523" />
    <path d="M -1.5533 -0.41294 L -1.55296 -0.41379" />
    <path d="M -1.17134 -1.29558 L 0.77506 -0.70429" />
    <path d="M -2.18471 -3.41551 L -2.77584 -4.65214 A 1 0.27774 201.6618 0 1 -2.78558 -4.7419 A 1 0.27774 201.6618 0 1 -2.0251 -4.72609 L 0.73381 -3.88798 A 1 0.27774 201.6618 0 1 1.82234 -3.25528 L 2.31632 -2.22189" />
    <path d="M -2.18471 -3.41551 L 1.66221 -2.24688" />
    <path d="M -1.17134 -1.29558 L -1.37791 -1.72773" />
    <path d="M -6.89025 -4.17526 L -10.7274 -5.87899 L -10.8963 -6.23231 L -10.29848 -7.33009 L -10.73793 -8.01811" />
    <path d="M -6.88399 -4.17148 L -6.89025 -4.17526" />
    <path d="M -6.88345 -4.17224 L -6.88399 -4.17148" />
    <path d="M -2.39838 -2.18082 L -6.88345 -4.17224" />
    <path d="M -2.39063 -2.17738 L -2.39777 -2.17955" />
    <path d="M 0.80598 -0.75806 L -2.39063 -2.17738" />
    <path d="M 0.93349 -0.97977 L -2.55953 -2.53071 L -2.56667 -2.53288 L -2.39777 -2.17955" />
    <path d="M -2.55953 -2.53071 L -2.39063 -2.17738" />
    <path d="M -6.50823 -5.34212 L -2.18891 -3.42429" />
    <path d="M -6.51196 -5.33686 L -6.50823 -5.34212" />
    <path d="M -10.52005 -7.75734 L -6.51196 -5.33686" />
    <path d="M -10.54705 -7.71927 L -10.52005 -7.75734" />
    <path d="M -7.05914 -4.52858 L -10.8963 -6.23231" />
    <path d="M -7.05288 -4.5248 L -7.05914 -4.52858 L -6.89025 -4.17526" />
    <path d="M -7.05234 -4.52556 L -7.05288 -4.5248 L -6.88399 -4.17148" />
    <path d="M -2.56633 -2.53373 L -7.05234 -4.52556 L -6.88345 -4.17224" />
    <path d="M -2.56667 -2.53288 L -2.56633 -2.53373" />
    <path d="M 0.35976 0.01784 L 1.22932 0.40393" />
    <path d="M 0.55576 0.61098 L 1.42533 0.99707" />
    <path d="M 2.17694 -4.1481 L 4.37258 0.4451" />
    <path d="M -0.13441 4.37715 A 1 0.73851 170.95707 0 0 0.35935 4.89985 L 0.25337 4.23399 L 1.97306 4.84616" />
    <path d="M 0.35935 4.89985 L 2.2117 5.55924" />
    <path d="M -5.25929 2.40512 A 1 0.81355 190.5005 0 0 -4.25992 2.46075" />
    <path d="M -7.84854 1.02753 L -5.25929 2.40512 L -5.15331 1.83337 A 1 0.81355 190.5005 0 0 -4.25395 1.92536 L -4.2548 1.96536 L -4.25559 2.00487 L -4.25632 2.04388 L -4.25699 2.08239 L -4.25761 2.12041 L -4.25816 2.15792 L -4.25866 2.19492 L -4.25909 2.23142 L -4.25947 2.2674 L -4.25979 2.30288 L -4.26005 2.33784 L -4.26025 2.37229 L -4.26039 2.40622 L -4.26048 2.43963 A 1 0.78186 180 0 0 -3.75432 3.11407 L -3.75432 2.49062 L -1.14562 3.64891 A 1 0.78186 180 0 0 0.21776 3.35513 L 1.07782 2.17101" />
    <path d="M -8.34098 0.3915 A 1 0.81355 190.5005 0 0 -7.84854 1.02753 L -7.74257 0.45577 L -5.15331 1.83337" />
    <path d="M -7.55159 -2.79891 A 2.5 0.76968 113.94169 0 1 -7.57424 -2.36109" />
    <path d="M -12.16199 -5.54194 L -10.73793 -8.01811" />
    <path d="M -12.16199 -5.54194 L -11.96598 -4.9488 L -10.0672 0.72516 L -13.39746 18.93169 L -13.34177 18.88061 L -11.93165 17.29765 L -8.25196 0.75407 L -8.21572 0.70418" />
    <path d="M -0.84477 -9.88155 L -1.08842 -11.29066 L -1.95799 -11.67675 L -5.24856 -7.14636" />
    <path d="M -1.08842 -11.29066 L -4.37899 -6.76026" />
    <path d="M -7.32826 -2.69975 L -7.57424 -2.36109" />
    <path d="M -8.23621 -0.38089 L -6.74126 -2.43911" />
    <path d="M -3.79198 -6.49962 L -1.43039 -9.75102" />
    <path d="M -8.23621 -0.38089 L -8.24416 -0.33411 L -8.25205 -0.28597 L -8.25987 -0.2365 L -8.26762 -0.1857 L -8.27531 -0.13359 L -8.28292 -0.08019 L -8.29046 -0.02551 L -8.29793 0.03042 L -8.30531 0.0876 L -8.31262 0.14601 L -8.31984 0.20562 L -8.32697 0.26641 L -8.33402 0.32838 L -8.34098 0.3915" />
    <path d="M -11.60749 -8.4042 L -13.03156 -5.92804 L -12.16199 -5.54194" />
    <path d="M -13.03156 -5.92804 L -12.83555 -5.3349 L -11.96598 -4.9488" />
    <path d="M -12.83555 -5.3349 L -10.93677 0.33906 L -10.0672 0.72516" />
    <path d="M -14.26702 18.54559 L -10.93677 0.33906" />
    <path d="M -2.42036 -5.65345 A 1 0.27774 201.6618 0 1 -1.6705 -5.61891 L 1.08841 -4.78079 A 1 0.27774 201.6618 0 1 2.17694 -4.1481" />
    <path d="M -7.10309 -6.57349 L -6.51196 -5.33686" />
    <path d="M -5.70516 -3.64907 L -5.49859 -3.21692" />
    <path d="M -5.43421 -3.19525 L -5.63659 -3.61862" />
    <path d="M -6.44758 -5.31519 L -7.07082 -6.61898" />
    <path d="M -10.53049 -7.74262 L -11.13575 -9.00881 A 1 0.2027 215.34944 0 1 -11.14486 -9.1003 A 1 0.2027 215.34944 0 1 -10.49812 -8.87506 L -9.93157 -9.67377 L -7.51197 -8.21258 A 1 0.2027 215.34944 0 1 -6.65149 -7.53212 L -6.66084 -7.51525 L -6.6701 -7.49851 L -6.67928 -7.4819 L -6.68838 -7.46543 L -6.69739 -7.44909 L -6.70632 -7.43289 L -6.71516 -7.41681 L -6.72392 -7.40087 L -6.7326 -7.38507 L -6.74118 -7.3694 L -6.74969 -7.35386 L -6.75811 -7.33845 L -6.76644 -7.32319 L -6.77469 -7.30805 L -7.0958 -6.71839 A 1 0.24203 208.5715 0 1 -6.38648 -6.59346 L -5.92244 -7.44557 L -3.31374 -6.28728 A 1 0.24203 208.5715 0 1 -2.37942 -5.68577" />
    <path d="M -8.07852 -7.41387 A 1 0.2027 215.34944 0 1 -7.10309 -6.57349 L -7.07082 -6.61898" />
    <path d="M -10.49812 -8.87506 L -8.07852 -7.41387 L -7.51197 -8.21258" />
    <path d="M -2.57543 -5.27102 L -2.56562 -5.29569 L -2.55561 -5.32077 L -2.5454 -5.34626 L -2.535 -5.37216 L -2.5244 -5.39847 L -2.51362 -5.42518 L -2.50263 -5.4523 L -2.49146 -5.47983 L -2.48009 -5.50776 L -2.46852 -5.5361 L -2.45677 -5.56483 L -2.44482 -5.59397 L -2.43269 -5.62351 L -2.42036 -5.65345" />
    <path d="M -11.60749 -8.4042 L -10.73793 -8.01811" />
    <path d="M -0.24102 3.70714 A 1 0.73851 170.95707 0 0 -0.24038 3.71129 L -0.13441 4.37715" />
    <path d="M -0.24038 3.71129 A 1 0.73851 170.95707 0 0 0.25337 4.23399" />
    <path d="M 7.66063 -5.96419 A 1 0.73851 170.95707 0 0 6.76432 -5.93472" />
    <path d="M 10.24988 -5.04248 L 7.66063 -5.96419" />
    <path d="M 10.68292 -4.69773 A 1 0.73851 170.95707 0 0 10.24988 -5.04248" />
    <path d="M -1.14562 4.27236 A 1 0.78186 180 0 0 -0.15154 4.26948" />
    <path d="M -3.75432 3.11407 L -1.14562 4.27236 L -1.14562 3.64891" />
    <path d="M 2.74468 -7.73924 A 1 0.81355 190.5005 0 0 2.25394 -8.36481 L -0.33531 -9.74241 A 1 0.81355 190.5005 0 0 -1.43039 -9.75102" />
    <path d="M -8.23621 -0.38089 A 1 0.81355 190.5005 0 0 -7.74257 0.45577" />
    <path d="M -14.26702 18.54559 L -13.39746 18.93169" />
    <path d="M -4.26042 1.82076 L -4.26043 1.82151 L -4.26044 1.82225 L -4.26045 1.823 L -4.26046 1.82375 L -4.26047 1.8245 L -4.26047 1.82525 L -4.26048 1.826 L -4.26049 1.82675 L -4.26049 1.8275 L -4.2605 1.82825 L -4.2605 1.829 L -4.2605 1.82975 L -4.2605 1.8305 L -4.2605 1.83125 L -4.26047 1.83796 L -4.26037 1.84467 L -4.2602 1.85139 L -4.25997 1.8581 L -4.25967 1.86483 L -4.2593 1.87155 L -4.25886 1.87827 L -4.25836 1.885 L -4.25779 1.89173 L -4.25716 1.89846 L -4.25646 1.90518 L -4.25569 1.91191 L -4.25485 1.91864 L -4.25395 1.92536" />
    <path d="M -3.77778 -5.43517 A 1 0.24203 208.5715 0 1 -2.77881 -4.75895" />
    <path d="M -7.10206 -6.67083 L -7.0993 -6.6669 L -7.09661 -6.66301 L -7.09401 -6.65915 L -7.09149 -6.65533 L -7.08905 -6.65153 L -7.0867 -6.64778 L -7.08442 -6.64405 L -7.08223 -6.64036 L -7.08012 -6.63671 L -7.07809 -6.63309 L -7.07615 -6.62951 L -7.07429 -6.62596 L -7.07251 -6.62245 L -7.07082 -6.61898" />
    <path d="M -6.38648 -6.59346 L -3.77778 -5.43517 L -3.31374 -6.28728" />
    <path d="M -7.10206 -6.67083 A 1 0.24203 208.5715 0 1 -7.0958 -6.71839" />
    <path d="M -10.57831 -9.89901 A 1 0.2027 215.34944 0 1 -9.93157 -9.67377" />
    <path d="M -0.24102 3.70714 L -0.20036 3.68997 L -0.16061 3.67152 L -0.12187 3.65182 L -0.08419 3.6309 L -0.04768 3.60882 L -0.01238 3.58561 L 0.02161 3.56133 L 0.05423 3.53603 L 0.08543 3.50975 L 0.11512 3.48254 L 0.14326 3.45447 L 0.16978 3.4256 L 0.19463 3.39597 L 0.21776 3.36565 L 0.21776 3.35513" />
    <path d="M 0.21776 3.36565 L 1.08024 2.17821" />
    <path d="M 3.56545 -1.24339 L 6.63738 -5.47278 L 6.63738 -5.4833 A 1 0.78186 180 0 0 6.76782 -5.86939 L 6.76782 -5.84889 L 6.76782 -5.8496 L 6.76782 -5.85032 L 6.76781 -5.85103 L 6.76781 -5.85174 L 6.76781 -5.85246 L 6.7678 -5.85317 L 6.76779 -5.85389 L 6.76779 -5.8546 L 6.76778 -5.85532 L 6.76777 -5.85603 L 6.76776 -5.85674 L 6.76775 -5.85746 L 6.76774 -5.85817 L 6.76773 -5.85888" />
    <path d="M 6.63738 -5.47278 L 6.655 -5.49806 L 6.67142 -5.52374 L 6.6866 -5.54976 L 6.70054 -5.5761 L 6.7132 -5.60272 L 6.72458 -5.62959 L 6.73466 -5.65667 L 6.74342 -5.68391 L 6.75085 -5.71129 L 6.75695 -5.73877 L 6.7617 -5.7663 L 6.7651 -5.79386 L 6.76714 -5.8214 L 6.76782 -5.84889" />
    <path d="M 6.76782 -5.86939 A 1 0.78186 180 0 0 6.26163 -6.54927 L 3.65294 -7.70756 A 1 0.78186 180 0 0 2.28955 -7.41378 L 0.50571 -4.95781" />
    <path d="M -4.13007 1.42465 A 1 0.78186 180 0 0 -4.2605 1.81074 L -4.2605 1.83125" />
    <path d="M -4.2605 1.81074 A 1 0.78186 180 0 0 -3.75432 2.49062" />
    <path d="M -2.6448 -0.62025 L -4.13007 1.42465" />
    <path d="M -6.63177 -7.5705 A 1 0.24203 208.5715 0 1 -5.92244 -7.44557" />
    <path d="M 3.56242 -1.24974 L 6.63738 -5.4833" />
    <path d="M 4.32989 0.55258 L 4.37258 0.4451" />
    <path d="M 1.82234 -3.25528 L 2.17694 -4.1481" />
    <path d="M 0.73381 -3.88798 L 1.08841 -4.78079" />
    <path d="M -2.0251 -4.72609 L -1.6705 -5.61891" />
    <path d="M -2.57543 -5.27102 L -2.78558 -4.7419" />
    <path d="M -10.57831 -9.89901 L -11.14486 -9.1003" />
    <path d="M -6.63177 -7.5705 L -6.65222 -7.53294" />
</svg>