<svg version="1.1" xmlns="http://www.w3.org/2000/svg" viewBox="-19.976871044273867 -11.961289316600427 39.95374208854773 38.81586497454786" fill="none" stroke="black" stroke-width="0.6%" vector-effect="non-scaling-stroke">
    <path d="M 7.87585 3.48089 A 2.5 1.12628 120.81449 0 1 7.8912 4.90482" />
    <path d="M 15.47384 -3.0791 L 7.83852 3.41754" />
    <path d="M 3.30414 -3.644 L 1.45287 -1.4885 L 1.70767 -0.7339 L 4.17608 6.4952 L -0.15324 25.51158 L 0.42182 25.85457 L 0.49421 25.82178 L 2.32736 24.66551 L 7.8912 4.90482" />
    <path d="M 15.71628 -2.9345 L 15.84846 -3.04696" />
    <path d="M 14.29957 0.79241 L 16.5052 12.58994 L 17.08025 12.93294 L 18.97687 10.95358 L 16.42351 -2.70396 L 15.84846 -3.04696" />
    <path d="M 3.30414 -3.644 L 3.8792 -3.301" />
    <path d="M 7.87585 3.48089 L 3.8792 -3.301" />
    <path d="M 2.02792 -1.1455 L 3.8792 -3.301" />
    <path d="M 2.02792 -1.1455 L 2.28273 -0.3909 L 4.75114 6.83819 L 0.42182 25.85457" />
    <path d="M 15.76137 -2.9076 L 7.9786 3.7145" />
    <path d="M 15.76137 -2.55672 L 15.76137 -2.9076" />
    <path d="M 14.18039 -1.21151 L 15.76137 -2.55672" />
    <path d="M 14.18039 -1.21151 L 14.51998 0.60487" />
    <path d="M 7.39495 6.66733 L 14.51998 0.60487" />
    <path d="M 15.47384 -3.0791 L 15.76137 -2.9076" />
    <path d="M 1.45287 -1.4885 L 2.02792 -1.1455" />
    <path d="M 16.42351 -2.70396 L 14.46792 -1.04002 L 17.08025 12.93294" />
    <path d="M 14.18039 -1.21151 L 14.46792 -1.04002" />
    <path d="M 1.70767 -0.7339 L 2.28273 -0.3909" />
    <path d="M 4.17608 6.4952 L 4.75114 6.83819" />
    <path d="M -0.277 -0.76294 L 2.20281 0.71617" />
    <path d="M -4.00639 -3.4065 L -0.277 -0.76294 L 0.20447 -1.17261 L 1.90401 -0.1589" />
    <path d="M -4.0579 -3.0532 L -4.00639 -3.4065 L -3.52492 -3.81616 L 0.20447 -1.17261" />
    <path d="M -4.20996 -3.14389 L -4.0579 -3.0532" />
    <path d="M -4.20996 -2.09123 L -4.20996 -3.14389 L -4.02127 -3.30444" />
    <path d="M -4.11412 -2.03406 L -4.20996 -2.09123" />
    <path d="M -4.11412 -1.64809 L -4.11412 -2.03406" />
    <path d="M 2.80463 2.47869 L -4.11412 -1.64809" />
    <path d="M 7.7607 2.91528 L 7.81221 3.33004 L 7.88814 3.37532" />
    <path d="M 7.45545 2.76752 L 7.7607 2.91528" />
    <path d="M 7.79539 3.34435 L 7.81221 3.33004" />
    <path d="M 12.41491 -1.04483 L 12.46642 -0.63008 L 12.94789 -1.03974 L 13.02382 -0.99446" />
    <path d="M 8.68552 -2.85015 L 12.41491 -1.04483 L 12.89638 -1.4545 L 12.94789 -1.03974" />
    <path d="M 4.85868 -5.13272 L 8.68552 -2.85015 L 9.16699 -3.25982 L 12.89638 -1.4545" />
    <path d="M 1.12929 -7.77628 L 4.85868 -5.13272 L 5.34015 -5.54239 L 9.16699 -3.25982" />
    <path d="M 1.07777 -7.42298 L 1.12929 -7.77628 L 1.61076 -8.18594 L 5.34015 -5.54239" />
    <path d="M 0.92572 -7.51367 L 1.07777 -7.42298" />
    <path d="M 0.92572 -6.46101 L 0.92572 -7.51367 L 1.11441 -7.67422" />
    <path d="M 1.02156 -6.40384 L 0.92572 -6.46101" />
    <path d="M 1.02156 -6.01787 L 1.02156 -6.40384" />
    <path d="M 11.54835 0.26097 L 1.02156 -6.01787" />
    <path d="M 12.46642 -0.63008 L 12.54235 -0.58479" />
    <path d="M 7.61539 3.03892 L 7.7607 2.91528" />
    <path d="M 3.49356 -10.2249 L -4.28921 -3.60279" />
    <path d="M 3.49356 -9.87401 L 3.49356 -10.2249" />
    <path d="M 1.91258 -8.5288 L 3.49356 -9.87401" />
    <path d="M 1.91258 -8.5288 L 2.03258 -7.88694" />
    <path d="M -4.87287 -0.64996 L -3.87055 -1.5028" />
    <path d="M -2.23027 -2.89846 L 1.26513 -5.87258" />
    <path d="M -9.94045 17.34822 L -4.37661 -2.41247" />
    <path d="M -4.39196 -3.8364 A 2.5 1.12628 120.81449 0 1 -4.37661 -2.41247" />
    <path d="M 3.20603 -10.39639 L -4.42929 -3.89975" />
    <path d="M 3.20603 -10.39639 L 3.49356 -10.2249" />
    <path d="M 3.44847 -10.25179 L 3.58064 -10.36425" />
    <path d="M 4.1557 -10.02125 L 3.58064 -10.36425" />
    <path d="M 4.1557 -10.02125 L 2.20011 -8.35731 L 2.32707 -7.67819" />
    <path d="M 1.91258 -8.5288 L 2.20011 -8.35731" />
    <path d="M 2.26524 -5.27606 L 2.70154 -2.94236" />
    <path d="M 2.84029 -4.93306 L 3.12113 -3.43091" />
    <path d="M -8.96367 -10.96129 L -10.81494 -8.80579 L -10.23989 -8.46279 L -8.38862 -10.61829" />
    <path d="M -10.81494 -8.80579 L -10.56014 -8.05119 L -9.98509 -7.70819 L -7.51667 -0.4791 L -7.61672 -0.03965" />
    <path d="M -10.56014 -8.05119 L -8.09173 -0.82209 L -7.51667 -0.4791" />
    <path d="M -8.09173 -0.82209 L -8.20503 -0.32444" />
    <path d="M -8.53537 1.12659 L -12.42105 18.19429 L -11.846 18.53728 L -11.77361 18.50449 L -9.94045 17.34822" />
    <path d="M -4.39196 -3.8364 L -8.38862 -10.61829" />
    <path d="M -10.23989 -8.46279 L -9.98509 -7.70819" />
    <path d="M -7.96032 1.46959 L -11.846 18.53728" />
    <path d="M -8.96367 -10.96129 L -8.38862 -10.61829" />
    <path d="M 6.12435 0.50878 L 5.39145 -3.41139" />
    <path d="M 4.94002 -5.82602 L 4.1557 -10.02125" />
    <path d="M -7.10157 1.24493 L -6.6201 0.83527 L -6.22759 1.06938 L -6.22759 1.42027" />
    <path d="M -6.70906 1.47905 L -6.22759 1.06938" />
    <path d="M -7.10157 1.24493 L -6.70906 1.47905 L -6.70906 1.82994 L -7.09243 1.60127 L -7.09243 1.98725 L -10.8592 -0.25949 L -10.86511 -0.26235 L -10.8652 -0.26307 L -14.82073 -2.62239 L -14.82082 -2.62178 L -14.82673 -2.62597 L -18.5935 -4.87271 L -18.5935 -5.25869 L -18.97687 -5.48735 L -18.97687 -5.83824 L -18.4954 -6.24791 L -18.31816 -6.14219" />
    <path d="M -6.70906 1.82994 L -6.22759 1.42027" />
    <path d="M -7.09243 1.98725 L -6.82574 1.76034" />
    <path d="M -14.82082 -2.62178 L -14.82036 -2.62217" />
    <path d="M -18.97687 -5.83824 L -18.58436 -5.60412 L -18.53249 -5.95983 L -14.77983 -3.29978 L -10.90609 -0.98924 L -7.15344 0.82735 L -7.10157 1.24493" />
    <path d="M -18.53249 -5.95983 L -18.05102 -6.36949 L -14.29836 -3.70944 L -10.42463 -1.3989 L -6.67197 0.41769 L -6.6201 0.83527" />
    <path d="M -14.77983 -3.29978 L -14.29836 -3.70944" />
    <path d="M -10.90609 -0.98924 L -10.42463 -1.3989" />
    <path d="M -7.15344 0.82735 L -6.67197 0.41769" />
</svg>