<svg version="1.1" xmlns="http://www.w3.org/2000/svg" viewBox="-15.459327467812834 -13.617983231664471 30.918654935625675 39.1978504521892" fill="none" stroke="black" stroke-width="0.6%" vector-effect="non-scaling-stroke">
    <path d="M 5.86133 2.00033 A 2.5 0.83048 113.76606 0 1 5.8734 3.33222" />
    <path d="M 11.64093 -5.86886 L 5.72063 1.75404" />
    <path d="M 12.64844 -6.51175 A 2.5 0.83048 293.76606 0 0 11.64093 -5.86886 L 11.96464 -5.72631 L 5.90296 2.07862" />
    <path d="M 2.07107 -3.78603 L 0.61529 -1.36744 L 0.81566 -0.71456 L 2.75674 5.53411 L -0.6477 24.29478 L -0.00028 24.57987 L 0.05664 24.53358 L 1.49818 23.05584 L 5.8734 3.33222" />
    <path d="M 10.5398 -1.58856 L 12.32046 7.79953 L 12.96788 8.08462 L 14.45933 5.82146 L 13.54739 -5.67316 A 2.5 0.83048 293.76606 0 0 13.29586 -6.22666 A 2.5 0.83048 293.76606 0 0 11.26849 -3.59452 L 11.12701 -3.15403 L 11.06552 -2.77104 A 2.5 0.83048 293.76606 0 0 11.051 -2.02168 L 12.96788 8.08462" />
    <path d="M 2.07107 -3.78603 L 2.71849 -3.50094" />
    <path d="M 5.86133 2.00033 L 2.71849 -3.50094" />
    <path d="M 1.26271 -1.08235 L 2.71849 -3.50094" />
    <path d="M 1.26271 -1.08235 L 1.46308 -0.42948 L 3.40416 5.8192 L -0.00028 24.57987" />
    <path d="M 10.94478 -3.73706 A 2.5 0.83048 113.76606 0 1 11.96464 -5.72631" />
    <path d="M 10.94478 -3.73706 L 10.8033 -3.29658 L 10.74181 -2.91358 L 11.06552 -2.77104" />
    <path d="M 10.72729 -2.16422 A 2.5 0.83048 113.76606 0 1 10.74181 -2.91358" />
    <path d="M 10.72729 -2.16422 L 10.77824 -1.89558" />
    <path d="M 5.53568 4.85466 L 10.77824 -1.89558" />
    <path d="M 10.94478 -3.73706 L 11.26849 -3.59452" />
    <path d="M 0.61529 -1.36744 L 1.26271 -1.08235" />
    <path d="M 0.81566 -0.71456 L 1.46308 -0.42948" />
    <path d="M 2.75674 5.53411 L 3.40416 5.8192" />
    <path d="M 10.72729 -2.16422 L 11.051 -2.02168" />
    <path d="M 0.83153 0.36516 L 1.18964 0.48933" />
    <path d="M -3.47689 -1.53203 L 0.83153 0.36516 L 1.05977 0.07128" />
    <path d="M -7.67559 -3.77391 L -3.47689 -1.53203 L -3.09828 -2.01953 L 0.96627 -0.22973" />
    <path d="M -7.73359 -3.43935 L -7.67559 -3.77391 L -7.29698 -4.2614 L -3.09828 -2.01953" />
    <path d="M -7.83421 -3.48366 L -7.73359 -3.43935" />
    <path d="M -7.90478 -2.52768 L -7.90478 -2.90379" />
    <path d="M -7.79688 -2.48016 L -7.90478 -2.52768" />
    <path d="M -7.79688 -2.11824 L -7.79688 -2.48016" />
    <path d="M 1.67531 2.05279 L -7.79688 -2.11824" />
    <path d="M -7.52617 -4.00223 L -7.50537 -3.99308" />
    <path d="M 9.06877 -3.37891 L 9.12677 -2.99328 L 9.50538 -3.48077 L 9.71466 -3.38862" />
    <path d="M 4.87007 -4.83479 L 9.06877 -3.37891 L 9.44738 -3.8664 L 9.50538 -3.48077" />
    <path d="M 0.56164 -6.73199 L 4.87007 -4.83479 L 5.24868 -5.32229 L 9.44738 -3.8664" />
    <path d="M -3.63706 -8.97386 L 0.56164 -6.73199 L 0.94026 -7.21948 L 5.24868 -5.32229" />
    <path d="M -3.69506 -8.63931 L -3.63706 -8.97386 L -3.25845 -9.46135 L 0.94026 -7.21948" />
    <path d="M -3.86625 -8.71469 L -3.69506 -8.63931" />
    <path d="M -3.86625 -7.72763 L -3.86625 -8.71469 L -3.48764 -9.20218 L -3.46684 -9.19303" />
    <path d="M -3.75835 -7.68011 L -3.86625 -7.72763" />
    <path d="M -3.75835 -7.31819 L -3.75835 -7.68011" />
    <path d="M 8.55535 -1.89591 L -3.75835 -7.31819" />
    <path d="M 9.12677 -2.99328 L 9.33605 -2.90112" />
    <path d="M 10.8033 -3.29658 L 11.12701 -3.15403" />
    <path d="M -7.83449 -3.60524 L -7.52617 -4.00223" />
    <path d="M -1.84698 -11.8082 L -7.90867 -4.00326" />
    <path d="M -2.86685 -9.81894 A 2.5 0.83048 113.76606 0 1 -1.84698 -11.8082" />
    <path d="M -2.86685 -9.81894 L -3.00832 -9.37846 L -2.68461 -9.23592 L -2.69658 -9.16135" />
    <path d="M -3.00832 -9.37846 L -3.01581 -9.3318" />
    <path d="M -8.27594 -1.22722 L -7.6382 -2.04837" />
    <path d="M -6.32325 -3.74148 L -3.59967 -7.24832" />
    <path d="M -12.31345 16.97395 L -7.93823 -2.74966" />
    <path d="M -7.95029 -4.08156 A 2.5 0.83048 113.76606 0 1 -7.93823 -2.74966" />
    <path d="M -2.17069 -11.95074 L -8.091 -4.32785" />
    <path d="M -2.17069 -11.95074 L -1.84698 -11.8082" />
    <path d="M -1.16318 -12.59363 A 2.5 0.83048 293.76606 0 0 -2.17069 -11.95074" />
    <path d="M -0.26423 -11.75505 A 2.5 0.83048 293.76606 0 0 -0.51576 -12.30854 L -1.16318 -12.59363" />
    <path d="M -0.51576 -12.30854 A 2.5 0.83048 293.76606 0 0 -2.54314 -9.6764 L -2.68461 -9.23592" />
    <path d="M -2.86685 -9.81894 L -2.54314 -9.6764" />
    <path d="M -3.15458 -7.05233 L -2.11814 -1.58793" />
    <path d="M -1.71037 0.56193 L -1.49116 1.71765 L -0.84374 2.00273 L -0.30272 1.18178" />
    <path d="M -2.50716 -6.76724 L -1.47072 -1.30284" />
    <path d="M -1.06295 0.84702 L -0.84374 2.00273" />
    <path d="M -11.74055 -9.86791 L -13.19634 -7.44933 L -12.54892 -7.16424 L -11.09313 -9.58282" />
    <path d="M -13.19634 -7.44933 L -12.99597 -6.79645 L -12.34855 -6.51136 L -10.40747 -0.26269 L -13.81191 18.49798 L -13.75498 18.45169 L -12.31345 16.97395" />
    <path d="M -12.99597 -6.79645 L -11.05489 -0.54778 L -10.40747 -0.26269" />
    <path d="M -11.05489 -0.54778 L -14.45933 18.21289 L -13.81191 18.49798" />
    <path d="M -7.95029 -4.08156 L -11.09313 -9.58282" />
    <path d="M -12.54892 -7.16424 L -12.34855 -6.51136" />
    <path d="M -11.74055 -9.86791 L -11.09313 -9.58282" />
    <path d="M 0.63869 -0.37397 L 0.227 -5.56326" />
    <path d="M 0.05824 -7.69043 L -0.26423 -11.75505" />
    <path d="M 13.29586 -6.22666 L 12.64844 -6.51175" />
</svg>