<svg version="1.1" xmlns="http://www.w3.org/2000/svg" viewBox="-15.01514817761024 -12.630902275648378 30.030296355220486 38.398561420400156" fill="none" stroke="black" stroke-width="0.6%" vector-effect="non-scaling-stroke">
    <path d="M 5.63017 2.60712 A 2.5 0.75402 113.46707 0 1 5.71788 3.44764" />
    <path d="M -0.65605 24.4829 L 2.61404 6.27478 L 3.26997 6.55954 L -0.00012 24.76766 L 0.05456 24.71597 L 1.43921 23.11811 L 5.05241 6.56449 L 10.90863 -1.70607" />
    <path d="M 10.41918 -1.01483 L 11.92663 7.8229 L 12.58256 8.10766 L 10.90863 -1.70607" />
    <path d="M 11.43058 -5.83133 L 9.65195 -3.31943" />
    <path d="M 9.20804 -2.69251 L 5.7728 2.15897" />
    <path d="M 1.95543 -2.43937 L 0.5571 0.04979 L 0.74956 0.63897 L 2.61404 6.27478" />
    <path d="M 12.08651 -5.54657 L 11.43058 -5.83133" />
    <path d="M 12.08651 -5.54657 L 5.71788 3.44764" />
    <path d="M 5.613 2.58003 L 5.79838 2.31823" />
    <path d="M 9.20804 -2.69251 L 9.31386 -2.64658 L 9.67753 -3.16018" />
    <path d="M 5.63017 2.60712 L 2.61136 -2.15461" />
    <path d="M 1.21303 0.33455 L 2.61136 -2.15461" />
    <path d="M 1.21303 0.33455 L 1.40549 0.92373 L 3.26997 6.55954" />
    <path d="M 12.58256 8.10766 L 14.01515 5.76044 L 12.08651 -5.54657" />
    <path d="M 1.95543 -2.43937 L 2.61136 -2.15461" />
    <path d="M -0.65605 24.4829 L -0.00012 24.76766" />
    <path d="M 9.64561 -3.35891 L 9.67753 -3.16018" />
    <path d="M 5.39172 -4.83417 L 9.64561 -3.35891" />
    <path d="M 1.02667 -6.72916 L 5.39172 -4.83417" />
    <path d="M -3.22722 -8.94738 L 1.02667 -6.72916" />
    <path d="M 8.43323 -1.59827 L -3.49513 -6.77671 L -3.49513 -8.20733 L -4.63431 -6.59849" />
    <path d="M 9.28194 -2.84531 L 9.31386 -2.64658" />
    <path d="M 5.02805 -4.32057 L 9.28194 -2.84531 L 9.64561 -3.35891" />
    <path d="M 0.663 -6.21556 L 5.02805 -4.32057 L 5.39172 -4.83417" />
    <path d="M -3.59089 -8.43378 L 0.663 -6.21556 L 1.02667 -6.72916" />
    <path d="M -3.62281 -8.26276 L -3.59089 -8.43378 L -3.22722 -8.94738" />
    <path d="M -3.62281 -8.26276 L -3.49513 -8.20733" />
    <path d="M 5.76646 2.1195 L 5.79838 2.31823" />
    <path d="M 5.1955 1.92149 L 5.76646 2.1195" />
    <path d="M -0.44669 -0.20634 L 0.62548 0.25912" />
    <path d="M -4.69841 -2.21333 L -4.6362 -2.18089" />
    <path d="M 1.3636 2.49506 L -7.37428 -1.29831 L -7.37428 -2.72893 L -7.64122 -2.35194" />
    <path d="M -3.21615 -0.73716 L 0.88303 1.04241" />
    <path d="M -7.47004 -2.95537 L -3.21615 -0.73716 L -3.06403 -0.95201" />
    <path d="M -7.50196 -2.78436 L -7.47004 -2.95537 L -7.31424 -3.17541" />
    <path d="M -7.50196 -2.78436 L -7.37428 -2.72893" />
    <path d="M -6.20345 -3.08657 L -10.28134 -4.8569 L -10.40572 -5.11961 L -9.74173 -6.36735 L -10.74774 -7.95419" />
    <path d="M -6.19714 -3.08284 L -6.20345 -3.08657" />
    <path d="M -6.1966 -3.0836 L -6.19714 -3.08284" />
    <path d="M -1.68569 -1.12528 L -6.1966 -3.0836" />
    <path d="M -1.67792 -1.12191 L -1.68509 -1.12403" />
    <path d="M 0.64806 -0.11213 L -1.67792 -1.12191" />
    <path d="M 0.74232 -0.27992 L -1.8023 -1.38462 L -1.80948 -1.38674 L -1.68509 -1.12403" />
    <path d="M -1.8023 -1.38462 L -1.67792 -1.12191" />
    <path d="M -1.40014 -2.26408 L 1.39386 -1.43973" />
    <path d="M -5.81869 -4.1823 L -1.40014 -2.26408" />
    <path d="M -5.99057 -4.28409 L -5.81869 -4.1823" />
    <path d="M -5.99161 -4.2826 L -5.99057 -4.28409" />
    <path d="M -9.64797 -6.44798 L -5.99161 -4.2826" />
    <path d="M -9.8253 -6.55512 L -9.64936 -6.45092" />
    <path d="M -9.84385 -6.52844 L -9.8253 -6.55512" />
    <path d="M -6.32783 -3.34928 L -10.40572 -5.11961" />
    <path d="M -6.32152 -3.34555 L -6.32783 -3.34928 L -6.20345 -3.08657" />
    <path d="M -6.32099 -3.34631 L -6.32152 -3.34555 L -6.19714 -3.08284" />
    <path d="M -1.80915 -1.38759 L -6.32099 -3.34631 L -6.1966 -3.0836" />
    <path d="M -1.80948 -1.38674 L -1.80915 -1.38759" />
    <path d="M 0.5571 0.04979 L 1.21303 0.33455" />
    <path d="M 0.74956 0.63897 L 1.40549 0.92373" />
    <path d="M 5.53145 2.4514 L 5.76646 2.1195" />
    <path d="M -1.92852 -11.6309 L -5.29024 -6.88325" />
    <path d="M -7.73606 -3.4291 L -7.81145 -3.32263" />
    <path d="M -1.27259 -11.34614 L -1.92852 -11.6309" />
    <path d="M -1.27259 -11.34614 L -3.04018 -8.84984" />
    <path d="M -7.72893 -3.19246 A 2.5 0.75402 113.46707 0 1 -7.64122 -2.35194" />
    <path d="M -7.72893 -3.19246 L -7.9906 -3.60519" />
    <path d="M -12.14607 -5.46503 L -10.74774 -7.95419" />
    <path d="M -12.14607 -5.46503 L -11.95361 -4.87584 L -10.08913 0.75996 L -13.35922 18.96808 L -13.30454 18.91639 L -11.9199 17.31854 L -8.30669 0.76492 L -6.97003 -1.12281" />
    <path d="M -3.45525 -6.08663 L -3.09088 -6.60122" />
    <path d="M -0.77654 2.30808 L -0.91324 1.50661" />
    <path d="M -1.92429 -4.42084 L -2.23265 -6.22863" />
    <path d="M -0.77654 2.30808 L -0.41847 1.72141" />
    <path d="M 0.50574 0.20714 L 0.57267 0.09747" />
    <path d="M 0.64464 -0.10604 L 0.64324 -0.11423" />
    <path d="M 0.36539 -1.74317 L -0.25311 -5.36926" />
    <path d="M -0.63266 -7.59443 L -1.27259 -11.34614" />
    <path d="M -7.06959 -6.55942 L -5.99161 -4.2826" />
    <path d="M -5.22403 -2.66138 L -4.91362 -2.00577 L -4.69924 -2.31405" />
    <path d="M -6.65046 -7.16211 L -6.47673 -6.79517" />
    <path d="M -7.59161 -3.33968 A 1 0.20481 214.8159 0 1 -8.52153 -4.09292" />
    <path d="M -5.5603 -2.13669 L -7.59161 -3.33968" />
    <path d="M -4.91362 -2.00577 A 1 0.20481 214.8159 0 1 -4.90516 -1.91603 A 1 0.20481 214.8159 0 1 -5.5603 -2.13669" />
    <path d="M -9.64797 -6.44798 L -10.72595 -8.72481 A 1 0.20481 214.8159 0 1 -10.73442 -8.81455 A 1 0.20481 214.8159 0 1 -10.07927 -8.59389 L -9.66014 -9.19658 L -7.62883 -7.99359 A 1 0.20481 214.8159 0 1 -6.65046 -7.16211" />
    <path d="M -11.40367 -8.23895 L -10.74774 -7.95419" />
    <path d="M -8.04796 -7.3909 A 1 0.20481 214.8159 0 1 -7.06959 -6.55942 L -6.65046 -7.16211" />
    <path d="M -10.07927 -8.59389 L -8.04796 -7.3909 L -7.62883 -7.99359" />
    <path d="M -11.40367 -8.23895 L -12.802 -5.74978 L -12.14607 -5.46503" />
    <path d="M -12.802 -5.74978 L -12.60954 -5.1606 L -11.95361 -4.87584" />
    <path d="M -12.60954 -5.1606 L -10.74506 0.4752 L -10.08913 0.75996" />
    <path d="M -14.01515 18.68332 L -10.74506 0.4752" />
    <path d="M -2.88858 -6.51339 L -2.7507 -5.70504" />
    <path d="M -1.56917 1.22186 L -1.43247 2.02332 L -0.77654 2.30808" />
    <path d="M -14.01515 18.68332 L -13.35922 18.96808" />
    <path d="M -10.31529 -9.41724 A 1 0.20481 214.8159 0 1 -9.66014 -9.19658" />
    <path d="M -5.92367 -6.3677 L -3.73724 -5.41851 L -3.3955 -6.06069 A 1 0.24338 208.01982 0 1 -2.35509 -5.33073 L -0.82246 -2.09364" />
    <path d="M -5.58194 -7.00989 L -3.3955 -6.06069" />
    <path d="M -3.73724 -5.41851 A 1 0.24338 208.01982 0 1 -2.69683 -4.68855 L -2.35509 -5.33073" />
    <path d="M -2.69683 -4.68855 L -1.58743 -2.34539" />
    <path d="M -0.83489 -0.75592 L -0.54086 -0.13491 L -0.32758 -0.53569" />
    <path d="M -0.54086 -0.13491 A 1 0.24338 208.01982 0 1 -0.53265 -0.04481 A 1 0.24338 208.01982 0 1 -1.24959 -0.16431 L -3.43602 -1.1135 A 1 0.24338 208.01982 0 1 -4.47644 -1.84346 L -4.77046 -2.46447" />
    <path d="M -5.52301 -4.05394 L -6.6324 -6.3971 A 1 0.24338 208.01982 0 1 -6.64062 -6.4872 A 1 0.24338 208.01982 0 1 -5.92367 -6.3677 L -5.58194 -7.00989" />
    <path d="M -6.29888 -7.12938 A 1 0.24338 208.01982 0 1 -5.58194 -7.00989" />
    <path d="M -4.67053 -2.25341 L -4.90516 -1.91603" />
    <path d="M -10.31529 -9.41724 L -10.73442 -8.81455" />
    <path d="M -0.28196 -0.51588 L -0.53265 -0.04481" />
    <path d="M -6.29888 -7.12938 L -6.64062 -6.4872" />
</svg>