<svg version="1.1" xmlns="http://www.w3.org/2000/svg" viewBox="-15.432552029873882 -18.866234620308035 30.513316273346845 46.09839483063522" fill="none" stroke="black" stroke-width="0.6%" vector-effect="non-scaling-stroke">
    <path d="M -6.72641 -3.53868 L -2.35773 -1.66656" />
    <path d="M -6.73004 -3.53334 L -6.72641 -3.53868" />
    <path d="M -10.79715 -5.91513 L -6.73004 -3.53334" />
    <path d="M -10.82185 -5.87877 L -10.79715 -5.91513" />
    <path d="M -11.14239 -4.37612 L -10.56619 -5.48829 L -10.98975 -6.13521" />
    <path d="M -7.26153 -2.71305 L -11.14239 -4.37612" />
    <path d="M -7.25518 -2.70933 L -7.26153 -2.71305 L -4.65695 2.65837 L -8.53781 0.9953 L -11.14239 -4.37612" />
    <path d="M -7.25465 -2.7101 L -7.25518 -2.70933 L -4.6506 2.66209 L -4.65695 2.65837" />
    <path d="M -2.71755 -0.76581 L -7.25465 -2.7101 L -4.65007 2.66132 L -4.6506 2.66209" />
    <path d="M -2.71787 -0.76495 L -2.71755 -0.76581" />
    <path d="M -2.71067 -0.76286 L -2.71787 -0.76495 L -0.11329 4.60647" />
    <path d="M 0.86718 0.77036 L -2.71067 -0.76286 L -0.10609 4.60856 L -0.11329 4.60647" />
    <path d="M -2.35351 -1.65785 L 1.57181 -0.51988" />
    <path d="M -2.35351 -1.65785 L -2.92326 -2.83285 A 1 0.26758 200.45559 0 1 -2.93278 -2.91347 A 1 0.26758 200.45559 0 1 -2.15863 -2.8997 L 1.20875 -11.92748 L 3.99101 -11.12089 A 1 0.26758 200.45559 0 1 5.08122 -10.51631 L 6.56845 -7.44921" />
    <path d="M -7.29979 -4.70834 L -6.73004 -3.53334" />
    <path d="M -6.66636 -3.51295 L -7.2684 -4.75453" />
    <path d="M -10.80757 -5.8998 L -11.39183 -7.10473 A 1 0.19673 214.19996 0 1 -11.40051 -7.18754 A 1 0.19673 214.19996 0 1 -10.73621 -6.96117 L -8.28099 -5.52333 A 1 0.19673 214.19996 0 1 -7.29979 -4.70834 L -7.2684 -4.75453" />
    <path d="M -11.86922 -6.51209 L -10.98975 -6.13521" />
    <path d="M -12.3623 -3.62193 L -10.98975 -6.13521" />
    <path d="M -12.3623 -3.62193 L -12.17338 -3.05296 L -10.34328 2.38829 L -13.55308 20.4282 L -13.49941 20.37473 L -12.14029 18.73727 L -8.5937 2.30487 L -7.88876 1.27344" />
    <path d="M -0.1139 4.60521 L -4.65007 2.66132" />
    <path d="M 1.46961 5.2838 L -0.10609 4.60856" />
    <path d="M 1.67461 -0.70813 L 0.30206 1.80516 L 1.18153 2.18204 L 1.37044 2.751 L 3.20055 8.19226 L -0.00925 26.23216 L 0.04442 26.1787 L 1.40354 24.54124 L 4.95013 8.10884 L 10.6984 -0.30181" />
    <path d="M 0.30206 1.80516 L 0.49098 2.37412 L 1.37044 2.751" />
    <path d="M 0.49098 2.37412 L 2.32108 7.81538 L 3.20055 8.19226" />
    <path d="M -0.88872 25.85528 L 2.32108 7.81538" />
    <path d="M 10.04755 0.65049 L 11.462 8.87415 L 12.34147 9.25103 L 10.6984 -0.30181" />
    <path d="M 10.97509 -4.50789 L 5.27756 3.82852" />
    <path d="M 1.67461 -0.70813 L 2.55408 -0.33125" />
    <path d="M 5.51724 4.19461 L 2.55408 -0.33125" />
    <path d="M 1.71384 -1.48853 L 2.2018 -0.48221" />
    <path d="M 0.62364 -2.09311 A 1 0.26758 200.45559 0 1 1.71384 -1.48853 L 5.08122 -10.51631" />
    <path d="M -2.15863 -2.8997 L 0.62364 -2.09311 L 3.99101 -11.12089" />
    <path d="M 0.86645 -12.00479 A 1 0.26758 200.45559 0 1 1.20875 -11.92748" />
    <path d="M -2.76124 -3.37338 L -2.64618 -3.67587 L -2.50553 -4.03502 L -2.33989 -4.44934 L -2.14994 -4.91709 L -1.93647 -5.43632 L -1.70039 -6.00485 L -1.44268 -6.62032 L -1.1644 -7.28014 L -0.86673 -7.98157 L -0.55092 -8.72167 L -0.21827 -9.49735 L 0.12982 -10.30536 L 0.4919 -11.14234 L 0.86645 -12.00479" />
    <path d="M -7.2989 -4.80388 L -7.29618 -4.80014 L -7.29355 -4.79643 L -7.29099 -4.79275 L -7.28852 -4.78911 L -7.28613 -4.7855 L -7.28383 -4.78192 L -7.28161 -4.77837 L -7.27947 -4.77486 L -7.27741 -4.77138 L -7.27544 -4.76794 L -7.27356 -4.76454 L -7.27175 -4.76116 L -7.27004 -4.75783 L -7.2684 -4.75453" />
    <path d="M -3.92982 -3.58979 A 1 0.2339 207.38788 0 1 -2.92462 -2.93535" />
    <path d="M -6.56823 -4.72044 L -3.92982 -3.58979 L 0.54269 -12.22262 A 1 0.2339 207.38788 0 1 1.03073 -11.97353" />
    <path d="M -7.2989 -4.80388 A 1 0.2339 207.38788 0 1 -7.29336 -4.84473 A 1 0.2339 207.38788 0 1 -6.56823 -4.72044 L -2.09571 -13.35326 L 0.54269 -12.22262" />
    <path d="M -2.44464 -13.42369 L -2.90698 -12.63273 L -3.3547 -11.86415 L -3.78606 -11.12095 L -4.19937 -10.40602 L -4.59301 -9.72217 L -4.96546 -9.07206 L -5.31525 -8.45823 L -5.64103 -7.88307 L -5.94152 -7.34882 L -6.21555 -6.85758 L -6.46204 -6.41126 L -6.68004 -6.0116 L -6.8687 -5.66015 L -7.02728 -5.35831 L -7.29336 -4.84473" />
    <path d="M -2.77 -13.63251 A 1 0.19673 214.19996 0 1 -2.44464 -13.42369" />
    <path d="M -5.22523 -15.07034 L -2.77 -13.63251" />
    <path d="M -5.88952 -15.29671 A 1 0.19673 214.19996 0 1 -5.22523 -15.07034" />
    <path d="M -11.86922 -6.51209 L -13.24177 -3.99881 L -12.3623 -3.62193" />
    <path d="M -13.24177 -3.99881 L -13.05285 -3.42984 L -12.17338 -3.05296" />
    <path d="M -13.05285 -3.42984 L -11.22275 2.01141 L -10.34328 2.38829" />
    <path d="M -14.43255 20.05132 L -11.22275 2.01141" />
    <path d="M -14.43255 20.05132 L -13.55308 20.4282" />
    <path d="M 1.18153 2.18204 L 2.55408 -0.33125" />
    <path d="M -0.88872 25.85528 L -0.00925 26.23216" />
    <path d="M 12.34147 9.25103 L 13.74765 6.87542 L 11.85456 -4.13101 L 5.60334 5.01554" />
    <path d="M 11.85456 -4.13101 L 10.97509 -4.50789" />
    <path d="M 5.51724 4.19461 A 2.5 0.7267 113.19668 0 1 5.60334 5.01554" />
    <path d="M 5.32528 -1.13286 L 5.31803 -1.09887 L 5.30883 -1.06072 L 5.29769 -1.01842 L 5.2846 -0.97199 L 5.26959 -0.92144 L 5.25265 -0.86679 L 5.23378 -0.80808 L 5.21301 -0.74531 L 5.19032 -0.67851 L 5.16574 -0.60771 L 5.13927 -0.53293 L 5.11092 -0.45421 L 5.08071 -0.37157 L 5.04864 -0.28504 L 4.15424 2.11279" />
    <path d="M 5.32528 -1.13286 L 6.56845 -7.44921" />
    <path d="M -2.57033 -13.50865 A 1 0.2339 207.38788 0 1 -2.09571 -13.35326" />
    <path d="M 10.28427 -6.45619 A 1 0.75051 170.66629 0 0 10.39811 -6.91802" />
    <path d="M 4.28807 2.31721 L 10.28427 -6.45619 L 9.21246 -12.97725 A 1 0.75051 170.66629 0 0 9.32631 -13.43908 L 10.39811 -6.91802" />
    <path d="M -1.30987 -17.48641 L -3.6083 -14.12343" />
    <path d="M 0.039 -17.73431 A 1 0.82136 190.83038 0 0 -1.30987 -17.48641" />
    <path d="M 2.65774 -16.3888 L 0.039 -17.73431" />
    <path d="M 2.82706 -16.2817 A 1 0.82136 190.83038 0 0 2.65774 -16.3888" />
    <path d="M 4.80231 1.5648 L 4.95026 1.61559 L 5.00936 1.97511 L 5.51357 2.19118 L 14.08076 -10.34401 L 14.08076 -9.42792" />
    <path d="M 5.07383 3.25474 L 4.83484 3.15232" />
    <path d="M 5.07383 2.91884 L 5.07383 3.25474" />
    <path d="M 5.51357 3.10728 L 5.07383 2.91884" />
    <path d="M 5.51357 2.19118 L 5.51357 3.10728 L 14.08076 -9.42792" />
    <path d="M 6.09775 -8.41992 L 9.21246 -12.97725" />
    <path d="M 6.17208 -14.71699 L 3.76008 -11.18784" />
    <path d="M 6.19676 -14.87222 A 1 0.75051 170.66629 0 0 5.99415 -14.92092" />
    <path d="M 8.81551 -13.97329 L 6.19676 -14.87222" />
    <path d="M 9.32631 -13.43908 A 1 0.75051 170.66629 0 0 8.81551 -13.97329" />
    <path d="M -0.09265 -12.49489 L 2.50118 -16.29008" />
    <path d="M 3.10805 -16.20146 A 1 0.79184 180 0 0 2.50118 -16.29008" />
    <path d="M 13.57655 -10.56008 L 14.08076 -10.34401" />
    <path d="M 9.51457 -12.29366 L 13.51746 -10.91961 L 4.95026 1.61559" />
    <path d="M 13.51746 -10.91961 L 13.57655 -10.56008 L 5.00936 1.97511" />
    <path d="M 5.2514 2.99493 L 5.07383 3.25474" />
    <path d="M 5.74646 -15.07081 L 3.10805 -16.20146" />
    <path d="M 6.17208 -14.71699 A 1 0.79184 180 0 0 5.74646 -15.07081" />
    <path d="M -8.28099 -5.52333 L -2.77 -13.63251" />
    <path d="M -10.73621 -6.96117 L -5.22523 -15.07034" />
    <path d="M 4.12902 2.07427 L 5.32528 -1.13286" />
    <path d="M -2.76124 -3.37338 L -2.93278 -2.91347" />
    <path d="M -5.88952 -15.29671 L -11.40051 -7.18754" />
</svg>