<svg version="1.1" xmlns="http://www.w3.org/2000/svg" viewBox="-15.49249986198329 -13.365126011571231 30.984999723966588 38.615602031517625" fill="none" stroke="black" stroke-width="0.6%" vector-effect="non-scaling-stroke">
    <path d="M 5.82183 1.77854 A 2.5 0.81383 113.78745 0 1 5.83382 3.09219" />
    <path d="M 11.55664 -6.20372 L 5.67082 1.52104" />
    <path d="M 2.05126 -3.8305 L 0.60529 -1.39591 L 0.80431 -0.75844 L 2.73231 5.34194 L -0.64919 23.96444 L -0.00028 24.25048 L 0.05626 24.20291 L 1.48808 22.69703 L 5.83382 3.09219" />
    <path d="M 11.7418 -6.12211 L 11.84924 -6.26312" />
    <path d="M 10.6645 -2.19171 L 12.3622 8.04654 L 13.01111 8.33257 L 14.4925 6.05013 L 12.49815 -5.97709 L 11.84924 -6.26312" />
    <path d="M 2.05126 -3.8305 L 2.70017 -3.54447" />
    <path d="M 5.82183 1.77854 L 2.70017 -3.54447" />
    <path d="M 1.25419 -1.10988 L 2.70017 -3.54447" />
    <path d="M 1.25419 -1.10988 L 1.45321 -0.47241 L 3.38122 5.62797 L -0.00028 24.25048" />
    <path d="M 11.8811 -6.0607 L 5.85835 1.84375" />
    <path d="M 11.8811 -5.73609 L 11.8811 -6.0607" />
    <path d="M 10.64624 -4.11543 L 11.8811 -5.73609" />
    <path d="M 10.64624 -4.11543 L 10.91148 -2.51587" />
    <path d="M 5.50369 4.58151 L 10.91148 -2.51587" />
    <path d="M 11.55664 -6.20372 L 11.8811 -6.0607" />
    <path d="M 0.60529 -1.39591 L 1.25419 -1.10988" />
    <path d="M 12.49815 -5.97709 L 10.9707 -3.97241 L 13.01111 8.33257" />
    <path d="M 10.64624 -4.11543 L 10.9707 -3.97241" />
    <path d="M 0.80431 -0.75844 L 1.45321 -0.47241" />
    <path d="M 2.73231 5.34194 L 3.38122 5.62797" />
    <path d="M 0.77716 0.11329 L 1.1173 0.23188" />
    <path d="M -3.54114 -1.79018 L 0.77716 0.11329 L 0.99108 -0.16747" />
    <path d="M -7.74948 -4.03291 L -3.54114 -1.79018 L -3.16508 -2.28374 L 0.8867 -0.49775" />
    <path d="M -7.80761 -3.70326 L -7.74948 -4.03291 L -7.37342 -4.52646 L -3.16508 -2.28374" />
    <path d="M -7.90596 -3.74662 L -7.80761 -3.70326" />
    <path d="M -7.97919 -2.80506 L -7.97919 -3.14849" />
    <path d="M -7.87104 -2.75739 L -7.97919 -2.80506" />
    <path d="M -7.87104 -2.40032 L -7.87104 -2.75739" />
    <path d="M 1.60559 1.7769 L -7.87104 -2.40032" />
    <path d="M -7.60313 -4.27245 L -7.57605 -4.26052" />
    <path d="M 8.99682 -3.68404 L 9.05495 -3.30315 L 9.43101 -3.79671 L 9.64932 -3.70048" />
    <path d="M 4.78848 -5.15131 L 8.99682 -3.68404 L 9.37288 -4.1776 L 9.43101 -3.79671" />
    <path d="M 0.47018 -7.05478 L 4.78848 -5.15131 L 5.16454 -5.64487 L 9.37288 -4.1776" />
    <path d="M -3.73816 -9.2975 L 0.47018 -7.05478 L 0.84624 -7.54833 L 5.16454 -5.64487" />
    <path d="M -3.79629 -8.96786 L -3.73816 -9.2975 L -3.3621 -9.79106 L 0.84624 -7.54833" />
    <path d="M -3.96787 -9.04349 L -3.79629 -8.96786" />
    <path d="M -3.96787 -8.06966 L -3.96787 -9.04349 L -3.59181 -9.53705 L -3.56473 -9.52511" />
    <path d="M -3.85972 -8.02198 L -3.96787 -8.06966" />
    <path d="M -3.85972 -7.66491 L -3.85972 -8.02198" />
    <path d="M 8.51414 -2.21063 L -3.85972 -7.66491" />
    <path d="M 9.05495 -3.30315 L 9.27326 -3.20692" />
    <path d="M -7.90705 -3.87358 L -7.60313 -4.27245" />
    <path d="M -1.96221 -12.16271 L -7.98496 -4.25825" />
    <path d="M -1.96221 -11.83809 L -1.96221 -12.16271" />
    <path d="M -3.19707 -10.21743 L -1.96221 -11.83809" />
    <path d="M -3.19707 -10.21743 L -3.10351 -9.65325" />
    <path d="M -8.33962 -1.5205 L -7.71998 -2.33373" />
    <path d="M -6.43165 -4.02458 L -3.70866 -7.59833" />
    <path d="M -12.35523 16.59502 L -8.00949 -3.00981" />
    <path d="M -8.02147 -4.32346 A 2.5 0.81383 113.78745 0 1 -8.00949 -3.00981" />
    <path d="M -2.28666 -12.30572 L -8.17249 -4.58097" />
    <path d="M -2.28666 -12.30572 L -1.96221 -12.16271" />
    <path d="M -2.10151 -12.22411 L -1.99407 -12.36513" />
    <path d="M -1.34516 -12.07909 L -1.99407 -12.36513" />
    <path d="M -1.34516 -12.07909 L -2.87261 -10.07441 L -2.77362 -9.47745" />
    <path d="M -3.19707 -10.21743 L -2.87261 -10.07441" />
    <path d="M -3.01263 -7.29152 L -2.10474 -1.81635" />
    <path d="M -1.7545 0.2958 L -1.48111 1.94454 L -0.8322 2.23057 L -0.06097 1.04229" />
    <path d="M -2.36372 -7.00549 L -1.45583 -1.53032" />
    <path d="M -1.1056 0.58183 L -0.8322 2.23057" />
    <path d="M -11.79205 -9.93251 L -13.23802 -7.49791 L -12.58911 -7.21188 L -11.14314 -9.64648" />
    <path d="M -13.23802 -7.49791 L -13.039 -6.86045 L -12.39009 -6.57441 L -10.46209 -0.47404 L -13.84359 18.14847 L -13.78705 18.10091 L -12.35523 16.59502" />
    <path d="M -13.039 -6.86045 L -11.111 -0.76007 L -10.46209 -0.47404" />
    <path d="M -11.111 -0.76007 L -14.4925 17.86244 L -13.84359 18.14847" />
    <path d="M -8.02147 -4.32346 L -11.14314 -9.64648" />
    <path d="M -12.58911 -7.21188 L -12.39009 -6.57441" />
    <path d="M -11.79205 -9.93251 L -11.14314 -9.64648" />
    <path d="M 0.5507 -0.64586 L -0.3572 -6.12103" />
    <path d="M -0.73347 -8.3902 L -1.34516 -12.07909" />
</svg>