<svg version="1.1" xmlns="http://www.w3.org/2000/svg" viewBox="-15.081927003993606 -13.249767418014788 30.163854007987215 38.369720885839556" fill="none" stroke="black" stroke-width="0.6%" vector-effect="non-scaling-stroke">
    <path d="M 5.65696 1.62643 A 2.5 0.7865 113.07378 0 1 5.66861 2.93271 L 5.52015 3.62199" />
    <path d="M 1.96879 -3.87043 L 0.56379 -1.41352 L 0.75717 -0.78437 L 2.63054 5.2359 L -0.65514 23.84094 L -0.00018 24.11995 L 0.05476 24.07126 L 1.44601 22.53841" />
    <path d="M 10.5694 -1.02861 L 11.98755 7.68998 L 12.64251 7.96899 L 11.06798 -1.711" />
    <path d="M 10.00495 -4.49871 L 11.48912 -6.53002" />
    <path d="M 10.00495 -4.49871 L 10.11234 -3.83853 L 9.9812 -3.65905" />
    <path d="M 9.25599 -2.66649 L 6.08355 1.67547" />
    <path d="M 5.65696 1.62643 L 2.62375 -3.59142" />
    <path d="M 1.21875 -1.13451 L 2.62375 -3.59142" />
    <path d="M 1.21875 -1.13451 L 1.41213 -0.50536 L 3.2855 5.51492 L -0.00018 24.11995" />
    <path d="M 4.82993 6.8267 L 1.44601 22.53841" />
    <path d="M 4.82993 6.8267 L 11.06798 -1.711" />
    <path d="M 12.64251 7.96899 L 14.08193 5.66255 L 12.14409 -6.25101 L 11.48912 -6.53002" />
    <path d="M 12.14409 -6.25101 L 10.65992 -4.2197" />
    <path d="M 10.7673 -3.55952 L 10.65992 -4.2197" />
    <path d="M 10.7673 -3.55952 L 5.52015 3.62199" />
    <path d="M 1.96879 -3.87043 L 2.62375 -3.59142" />
    <path d="M 0.56379 -1.41352 L 1.21875 -1.13451" />
    <path d="M 0.75717 -0.78437 L 1.41213 -0.50536" />
    <path d="M 2.63054 5.2359 L 3.2855 5.51492" />
    <path d="M 10.00495 -4.49871 L 10.65992 -4.2197" />
    <path d="M 10.11234 -3.83853 L 10.7673 -3.55952" />
    <path d="M 9.80179 -2.43398 L 10.1672 -2.93409" />
    <path d="M 9.25599 -2.66649 L 9.80179 -2.43398" />
    <path d="M 5.90414 2.90054 L 6.26955 2.40043" />
    <path d="M 5.6946 2.81128 L 5.90414 2.90054" />
    <path d="M 9.60786 -4.17145 L 9.66653 -3.7931 L 10.1672 -3.57981 L 10.1672 -2.93409" />
    <path d="M 5.36022 -5.59528 L 9.60786 -4.17145" />
    <path d="M 1.00159 -7.45203 L 5.36022 -5.59528" />
    <path d="M -3.24604 -9.64715 L 1.00159 -7.45203" />
    <path d="M -3.80539 -9.53207 L -3.44294 -9.37767" />
    <path d="M 8.87819 -2.14942 L -3.51583 -7.42921 L -3.51583 -8.10722 L -5.82063 -4.95276" />
    <path d="M 9.24245 -3.67133 L 9.30113 -3.29299 L 9.66653 -3.7931" />
    <path d="M 4.99482 -5.09517 L 9.24245 -3.67133 L 9.60786 -4.17145" />
    <path d="M 0.63618 -6.95192 L 4.99482 -5.09517 L 5.36022 -5.59528" />
    <path d="M -3.61145 -9.14704 L 0.63618 -6.95192 L 1.00159 -7.45203" />
    <path d="M -3.67013 -8.81868 L -3.61145 -9.14704 L -3.24604 -9.64715" />
    <path d="M -4.17079 -9.03196 L -3.67013 -8.81868" />
    <path d="M -4.17079 -8.38623 L -4.17079 -9.03196 L -3.80539 -9.53207" />
    <path d="M -4.17079 -8.38623 L -3.51583 -8.10722" />
    <path d="M 9.80179 -3.0797 L 9.80179 -2.43398" />
    <path d="M 9.30113 -3.29299 L 9.80179 -3.0797 L 10.1672 -3.57981" />
    <path d="M 5.7102 1.16307 L 5.76888 1.54142 L 6.26955 1.75471 L 6.26955 2.40043" />
    <path d="M 5.30953 1.02877 L 5.7102 1.16307" />
    <path d="M -2.89606 -2.11752 L 0.83721 -0.52716" />
    <path d="M -5.6841 -3.55833 L -2.89606 -2.11752" />
    <path d="M -7.70304 -4.19755 L -7.34059 -4.04315" />
    <path d="M 1.53573 1.71763 L -7.41348 -2.09469 L -7.41348 -2.7727 L -7.90663 -2.09775" />
    <path d="M -3.26147 -1.6174 L 1.07245 0.22883" />
    <path d="M -7.5091 -3.81252 L -3.26147 -1.6174 L -2.89606 -2.11752" />
    <path d="M -7.56778 -3.48416 L -7.5091 -3.81252 L -7.21754 -4.21157" />
    <path d="M -7.65758 -3.52241 L -7.56778 -3.48416" />
    <path d="M -7.73218 -2.90847 L -7.41348 -2.7727" />
    <path d="M 5.90414 2.25482 L 5.90414 2.90054" />
    <path d="M 5.7692 2.19733 L 5.90414 2.25482 L 6.26955 1.75471" />
    <path d="M -6.58522 -3.9422 L -10.65711 -5.67681 L -10.72056 -6.0669 L -9.96246 -7.28164 L -6.11545 -5.07836 L -1.70341 -3.19885 L 1.10624 -2.36211" />
    <path d="M -6.57894 -3.93861 L -6.58522 -3.9422" />
    <path d="M -6.57839 -3.93929 L -6.57894 -3.93861" />
    <path d="M -2.0737 -2.02031 L -6.57839 -3.93929" />
    <path d="M -2.06635 -2.01719 L -2.07353 -2.01932" />
    <path d="M 0.74656 -0.8189 L -2.06635 -2.01719" />
    <path d="M 0.61815 -1.23666 L -2.1298 -2.40728 L -2.13699 -2.40942 L -2.07353 -2.01932" />
    <path d="M -2.1298 -2.40728 L -2.06635 -2.01719" />
    <path d="M -6.64867 -4.3323 L -10.72056 -6.0669" />
    <path d="M -6.64239 -4.3287 L -6.64867 -4.3323 L -6.58522 -3.9422" />
    <path d="M -6.64184 -4.32939 L -6.64239 -4.3287 L -6.57894 -3.93861" />
    <path d="M -2.13663 -2.41019 L -6.64184 -4.32939 L -6.57839 -3.93929" />
    <path d="M -2.13699 -2.40942 L -2.13663 -2.41019" />
    <path d="M -4.17079 -8.38623 L -6.44837 -5.26903" />
    <path d="M -7.22018 -4.21269 L -7.34323 -4.04428" />
    <path d="M -7.77398 -4.10046 L -7.70304 -4.19755" />
    <path d="M -11.458 -9.59018 L -12.86299 -7.13327 L -12.20803 -6.85426 L -10.80303 -9.31117" />
    <path d="M -12.86299 -7.13327 L -12.66961 -6.50412 L -12.01465 -6.2251 L -10.14128 -0.20483 L -13.42696 18.40021 L -13.37202 18.35152 L -11.98077 16.81866" />
    <path d="M -12.66961 -6.50412 L -10.79625 -0.48384 L -10.14128 -0.20483" />
    <path d="M -10.79625 -0.48384 L -14.08193 18.12119 L -13.42696 18.40021" />
    <path d="M -2.85739 -6.74836 L -2.32296 -3.46277" />
    <path d="M -2.08942 -2.02701 L -2.04518 -1.75504" />
    <path d="M -1.70487 0.33715 L -1.43924 1.97023 L -0.78427 2.24925 L -1.04991 0.61616" />
    <path d="M -3.42183 -10.21846 L -1.93766 -12.24977" />
    <path d="M -3.42183 -10.21846 L -3.31444 -9.55828 L -3.3118 -9.55715" />
    <path d="M -3.31444 -9.55828 L -3.44558 -9.37879" />
    <path d="M -7.76982 -4.09332 A 2.5 0.7865 113.07378 0 1 -7.75818 -2.78704 L -7.90663 -2.09775" />
    <path d="M -7.76982 -4.09332 L -8.04297 -4.5632" />
    <path d="M -9.45393 -6.9904 L -10.80303 -9.31117" />
    <path d="M -12.20803 -6.85426 L -12.01465 -6.2251" />
    <path d="M -8.59685 1.10695 L -11.98077 16.81866" />
    <path d="M -8.59685 1.10695 L -6.53195 -1.71916" />
    <path d="M -5.3241 -3.37229 L -5.30589 -3.39721" />
    <path d="M -4.5613 -4.41629 L -2.6343 -7.05368" />
    <path d="M -1.39022 -1.47603 L -1.43446 -1.748" />
    <path d="M -1.66877 -3.18853 L -2.27239 -6.89951" />
    <path d="M -0.78427 2.24925 L -0.03493 1.04854" />
    <path d="M 0.55945 -0.64548 L 0.51521 -0.91745" />
    <path d="M 0.23818 -2.62062 L -0.32272 -6.06896" />
    <path d="M -0.68987 -8.32616 L -1.2827 -11.97075 L -1.93766 -12.24977" />
    <path d="M -1.2827 -11.97075 L -2.76686 -9.93945" />
    <path d="M -2.67098 -9.34996 L -2.76686 -9.93945" />
    <path d="M 5.53054 1.40896 L 5.7102 1.16307" />
    <path d="M 5.67935 1.66395 L 5.76888 1.54142" />
    <path d="M -11.458 -9.59018 L -10.80303 -9.31117" />
    <path d="M -3.42183 -10.21846 L -2.76686 -9.93945" />
</svg>